<svg height="512pt" viewBox="0 -4 512 512" width="512pt" xmlns="http://www.w3.org/2000/svg"><path d="m136 504c-4.425781 0-8-3.574219-8-8 0-30.871094 25.128906-56 56-56 4.425781 0 8 3.574219 8 8s-3.574219 8-8 8c-22.054688 0-40 17.945312-40 40 0 4.425781-3.574219 8-8 8zm0 0"/><path d="m216 456.015625-32.007812-.015625c-4.417969 0-7.992188-3.585938-7.992188-8 0-4.425781 3.585938-8 8-8h.007812l32 .015625c4.417969 0 7.992188 3.585937 7.992188 8 0 4.425781-3.585938 8-8 8zm0 0"/><path d="m376 504c-4.425781 0-8-3.574219-8-8 0-22.054688-17.945312-40-40-40-4.425781 0-8-3.574219-8-8s3.574219-8 8-8c30.871094 0 56 25.128906 56 56 0 4.425781-3.574219 8-8 8zm0 0"/><path d="m296 456.015625c-4.414062 0-8-3.574219-8-8 0-4.414063 3.574219-8 7.992188-8l32-.015625h.007812c4.414062 0 8 3.574219 8 8 0 4.414062-3.574219 8-7.992188 8zm0 0"/><path d="m216 456.015625c-4.425781 0-8-3.574219-8-8v-25.609375c0-4.421875 3.574219-8 8-8s8 3.578125 8 8v25.609375c0 4.425781-3.574219 8-8 8zm0 0"/><path d="m296 456c-4.425781 0-8-3.574219-8-8v-25.59375c0-4.421875 3.574219-8 8-8s8 3.578125 8 8v25.59375c0 4.425781-3.574219 8-8 8zm0 0"/><path d="m256 440c-52.9375 0-96-43.0625-96-96 0-4.425781 3.574219-8 8-8s8 3.574219 8 8c0 44.113281 35.886719 80 80 80s80-35.886719 80-80c0-4.425781 3.574219-8 8-8s8 3.574219 8 8c0 52.9375-43.0625 96-96 96zm0 0"/><path d="m344 304c-4.425781 0-8-3.574219-8-8 0-44.113281-35.886719-80-80-80s-80 35.886719-80 80c0 4.425781-3.574219 8-8 8s-8-3.574219-8-8c0-52.9375 43.0625-96 96-96s96 43.0625 96 96c0 4.425781-3.574219 8-8 8zm0 0"/><path d="m168 352.015625c-4.425781 0-8-3.574219-8-8v-48.015625c0-4.425781 3.574219-8 8-8s8 3.574219 8 8v48.015625c0 4.425781-3.574219 8-8 8zm0 0"/><path d="m344 352.015625c-4.425781 0-8-3.574219-8-8v-48.015625c0-4.425781 3.574219-8 8-8s8 3.574219 8 8v48.015625c0 4.425781-3.574219 8-8 8zm0 0"/><path d="m344 320c-2.046875 0-4.097656-.785156-5.65625-2.34375l-24-24c-3.128906-3.128906-3.128906-8.183594 0-11.3125s8.183594-3.128906 11.3125 0l24 24c3.128906 3.128906 3.128906 8.183594 0 11.3125-1.558594 1.558594-3.609375 2.34375-5.65625 2.34375zm0 0"/><path d="m256 312c-35.878906 0-66.503906-16.265625-67.792969-16.953125-3.886719-2.09375-5.34375-6.933594-3.253906-10.832031 2.085937-3.894532 6.917969-5.367188 10.832031-3.261719.277344.152344 28.472656 15.046875 60.214844 15.046875 31.894531 0 59.929688-14.886719 60.207031-15.046875 3.871094-2.089844 8.746094-.632813 10.832031 3.253906 2.089844 3.890625.632813 8.746094-3.253906 10.832031-1.28125.695313-31.90625 16.960938-67.785156 16.960938zm0 0"/><path d="m168 320c-2.046875 0-4.097656-.785156-5.65625-2.34375-3.128906-3.128906-3.128906-8.183594 0-11.3125l24-24c3.128906-3.128906 8.183594-3.128906 11.3125 0s3.128906 8.183594 0 11.3125l-24 24c-1.558594 1.558594-3.609375 2.34375-5.65625 2.34375zm0 0"/><path d="m232 472c-2.046875 0-4.097656-.785156-5.65625-2.34375l-16-15.984375c-3.128906-3.121094-3.128906-8.183594 0-11.3125s8.183594-3.128906 11.3125 0l16 15.984375c3.128906 3.121094 3.128906 8.183594 0 11.3125-1.558594 1.558594-3.609375 2.34375-5.65625 2.34375zm0 0"/><path d="m232 472c-3.351562 0-6.472656-2.121094-7.585938-5.472656-1.398437-4.191406.867188-8.726563 5.058594-10.121094l24-8c4.214844-1.40625 8.71875.867188 10.121094 5.058594 1.398438 4.191406-.867188 8.726562-5.058594 10.121094l-24 8c-.847656.277343-1.703125.414062-2.535156.414062zm0 0"/><path d="m280 472c-2.046875 0-4.097656-.785156-5.65625-2.34375-3.128906-3.128906-3.128906-8.191406 0-11.3125l16-15.984375c3.128906-3.128906 8.183594-3.128906 11.3125 0s3.128906 8.191406 0 11.3125l-16 15.984375c-1.558594 1.558594-3.609375 2.34375-5.65625 2.34375zm0 0"/><path d="m280 472c-.832031 0-1.6875-.136719-2.527344-.414062l-24-8c-4.183594-1.394532-6.457031-5.921876-5.058594-10.121094 1.402344-4.183594 5.890626-6.464844 10.121094-5.058594l24 8c4.183594 1.394531 6.457032 5.921875 5.058594 10.121094-1.121094 3.351562-4.242188 5.472656-7.59375 5.472656zm0 0"/><path d="m256 176c-48.519531 0-88-39.480469-88-88s39.480469-88 88-88 88 39.480469 88 88-39.480469 88-88 88zm0-160c-39.703125 0-72 32.296875-72 72s32.296875 72 72 72 72-32.296875 72-72-32.296875-72-72-72zm0 0"/><path d="m87.992188 272c-48.511719 0-87.992188-39.480469-87.992188-88s39.480469-88 87.992188-88c23.511718 0 45.609374 9.160156 62.230468 25.777344 16.617188 16.613281 25.777344 38.71875 25.769532 62.222656.007812 23.503906-9.152344 45.609375-25.769532 62.222656-16.621094 16.617188-38.71875 25.777344-62.230468 25.777344zm0-160c-39.695313 0-71.992188 32.296875-71.992188 72s32.296875 72 71.992188 72c19.230468 0 37.320312-7.496094 50.917968-21.089844 13.59375-13.597656 21.082032-31.679687 21.082032-50.910156s-7.488282-37.3125-21.082032-50.910156c-13.597656-13.59375-31.6875-21.089844-50.917968-21.089844zm0 0"/><path d="m423.992188 272.03125c-48.519532 0-88-39.488281-88-88.015625.007812-48.527344 39.488281-88.015625 88-88.015625 48.519531.03125 88 39.511719 88.007812 88.015625-.007812 48.511719-39.488281 88-88.007812 88.015625zm-.007813-160.03125c-39.6875 0-71.984375 32.304688-71.992187 72.015625 0 39.710937 32.296874 72.015625 72 72.015625 39.695312-.015625 72-32.320312 72.007812-72.015625-.007812-39.679687-32.3125-71.984375-72.015625-72.015625zm0 0"/><path d="m128 232h-80c-4.425781 0-8-3.574219-8-8v-56c0-4.425781 3.574219-8 8-8h80c4.425781 0 8 3.574219 8 8v56c0 4.425781-3.574219 8-8 8zm-72-16h64v-40h-64zm0 0"/><path d="m128 176h-80c-4.425781 0-8-3.574219-8-8v-24c0-4.425781 3.574219-8 8-8h80c4.425781 0 8 3.574219 8 8v24c0 4.425781-3.574219 8-8 8zm-72-16h64v-8h-64zm0 0"/><path d="m232 136c-13.230469 0-24-10.769531-24-24s10.769531-24 24-24c4.425781 0 8 3.574219 8 8s-3.574219 8-8 8c-4.414062 0-8 3.585938-8 8s3.585938 8 8 8c4.425781 0 8 3.574219 8 8s-3.574219 8-8 8zm0 0"/><path d="m288 136h-56c-4.425781 0-8-3.574219-8-8s3.574219-8 8-8h56c4.425781 0 8 3.574219 8 8s-3.574219 8-8 8zm0 0"/><path d="m288 104h-56c-4.425781 0-8-3.574219-8-8s3.574219-8 8-8h56c4.425781 0 8 3.574219 8 8s-3.574219 8-8 8zm0 0"/><path d="m280 136c-4.425781 0-8-3.574219-8-8v-32c0-4.425781 3.574219-8 8-8s8 3.574219 8 8v32c0 4.425781-3.574219 8-8 8zm0 0"/><path d="m216 72c-4.425781 0-8-3.574219-8-8 0-13.230469 10.769531-24 24-24 4.425781 0 8 3.574219 8 8s-3.574219 8-8 8c-4.414062 0-8 3.585938-8 8 0 4.425781-3.574219 8-8 8zm0 0"/><path d="m288 56h-56c-4.425781 0-8-3.574219-8-8s3.574219-8 8-8h56c4.425781 0 8 3.574219 8 8s-3.574219 8-8 8zm0 0"/><path d="m288 104c-4.425781 0-8-3.574219-8-8v-48c0-4.425781 3.574219-8 8-8s8 3.574219 8 8v48c0 4.425781-3.574219 8-8 8zm0 0"/><path d="m216 120c-4.425781 0-8-3.574219-8-8v-48c0-4.425781 3.574219-8 8-8s8 3.574219 8 8v48c0 4.425781-3.574219 8-8 8zm0 0"/><path d="m456 224h-64c-8.824219 0-16-7.175781-16-16v-40c0-8.824219 7.175781-16 16-16h64c8.824219 0 16 7.175781 16 16v40c0 8.824219-7.175781 16-16 16zm0-16v8zm-64-40v40h63.976562l.023438-40zm0 0"/><path d="m408 168c-4.425781 0-8-3.574219-8-8v-24c0-4.425781 3.574219-8 8-8s8 3.574219 8 8v24c0 4.425781-3.574219 8-8 8zm0 0"/><path d="m440 144h-32c-4.425781 0-8-3.574219-8-8s3.574219-8 8-8h32c4.425781 0 8 3.574219 8 8s-3.574219 8-8 8zm0 0"/><path d="m440 168c-4.425781 0-8-3.574219-8-8v-24c0-4.425781 3.574219-8 8-8s8 3.574219 8 8v24c0 4.425781-3.574219 8-8 8zm0 0"/></svg>