<?xml version="1.0" standalone="no"?>
<!DOCTYPE svg PUBLIC "-//W3C//DTD SVG 20010904//EN"
 "http://www.w3.org/TR/2001/REC-SVG-20010904/DTD/svg10.dtd">
<svg version="1.0" xmlns="http://www.w3.org/2000/svg"
 width="512.000000pt" height="512.000000pt" viewBox="0 0 512.000000 512.000000"
 preserveAspectRatio="xMidYMid meet">
<metadata>
Created by potrace 1.15, written by Peter Selinger 2001-2017
</metadata>
<g transform="translate(0.000000,512.000000) scale(0.100000,-0.100000)"
fill="#000000" stroke="none">
<path d="M2468 4988 c-17 -20 -18 -57 -18 -450 l0 -429 -23 -22 c-13 -12 -45
-40 -72 -62 -27 -22 -70 -58 -96 -80 -26 -22 -66 -56 -90 -77 -91 -75 -145
-121 -188 -157 -24 -20 -53 -45 -66 -57 -12 -11 -35 -31 -51 -43 -29 -22 -72
-58 -168 -139 -28 -24 -68 -58 -89 -75 -68 -57 -96 -85 -90 -91 4 -3 1 -6 -5
-6 -8 0 -12 -22 -12 -65 l0 -65 -490 0 c-435 0 -495 -2 -523 -16 -18 -9 -35
-22 -39 -28 -4 -6 -8 -460 -8 -1008 l0 -998 -189 0 c-175 0 -190 -1 -215 -21
-20 -16 -26 -29 -26 -60 0 -53 13 -74 51 -88 22 -8 217 -11 620 -11 l589 0 0
-109 c0 -170 -163 -151 1265 -151 1428 0 1265 -19 1265 151 l0 109 589 0 c403
0 598 3 620 11 38 14 51 35 51 88 0 31 -6 44 -26 60 -25 20 -40 21 -215 21
l-189 0 0 988 c0 543 -3 996 -6 1008 -3 12 -21 28 -40 38 -31 14 -90 16 -524
16 l-490 0 0 65 c0 39 -4 65 -11 65 -5 0 -8 3 -6 8 5 7 0 12 -144 134 -152
128 -173 146 -203 169 -16 12 -39 32 -51 43 -13 12 -42 37 -66 57 -43 36 -97
82 -188 157 -24 21 -64 55 -90 77 -26 22 -69 58 -96 80 -98 80 -95 75 -95 165
l0 80 268 0 c246 0 269 2 299 19 63 39 54 91 -36 205 l-44 56 29 43 c15 23 40
56 55 72 31 35 40 66 32 107 -11 54 -33 58 -333 58 l-270 0 0 68 c0 90 -17
112 -86 112 -38 0 -53 -5 -66 -22z m481 -341 c-22 -17 -49 -71 -49 -99 0 -25
23 -65 48 -85 13 -11 -17 -13 -156 -13 l-172 0 0 105 0 105 173 0 c137 -1 169
-3 156 -13z m-319 -784 c14 -12 48 -41 75 -64 107 -89 149 -125 170 -144 12
-11 38 -33 58 -48 21 -16 48 -38 61 -50 13 -12 43 -38 66 -57 24 -19 64 -53
90 -75 26 -22 71 -60 100 -85 29 -25 70 -60 92 -79 l38 -33 0 -914 0 -914 -50
0 -50 0 0 458 0 457 -25 28 -26 27 -694 0 -694 0 -26 -27 -25 -28 0 -457 0
-458 -50 0 -50 0 0 914 0 914 38 33 c37 32 73 63 187 158 28 23 68 57 90 76
22 19 65 55 95 81 30 25 69 58 86 72 17 15 53 45 79 67 51 42 133 111 175 148
14 12 41 34 60 49 l35 27 35 -27 c19 -14 46 -37 60 -49z m-1125 -1808 l0 -935
-440 0 -440 0 0 935 0 935 440 0 440 0 0 -935z m2940 0 l0 -935 -440 0 -440 0
0 935 0 935 440 0 440 0 0 -935z m-1995 -260 l0 -395 -242 0 -243 0 3 390 2
390 238 3 c130 1 238 3 240 5 1 1 2 -176 2 -393z m652 -5 l3 -390 -242 0 -243
0 0 393 0 392 240 -3 240 -3 2 -389z m278 -620 l0 -50 -845 0 -845 0 0 50 0
50 845 0 845 0 0 -50z m235 -275 l0 -45 -1080 0 -1080 0 0 45 0 45 1080 0
1080 0 0 -45z"/>
<path d="M2457 3609 c-21 -5 -47 -13 -57 -19 -28 -15 -110 -92 -110 -102 0 -6
-9 -21 -19 -34 -35 -44 -39 -204 -6 -237 7 -7 15 -22 19 -32 8 -25 53 -75 87
-97 34 -22 124 -48 166 -48 63 0 161 40 204 84 22 23 42 51 45 64 4 12 10 22
14 22 5 0 14 25 20 55 14 69 4 157 -21 186 -11 12 -19 28 -19 34 0 7 -23 33
-52 59 -76 68 -166 90 -271 65z m135 -181 c74 -60 58 -188 -26 -203 -80 -15
-136 28 -136 105 0 65 43 110 105 110 23 0 48 -6 57 -12z"/>
<path d="M2160 2941 c-85 -26 -150 -92 -168 -171 -15 -64 -16 -227 -2 -267 17
-48 42 -53 249 -53 252 0 241 -8 240 178 -1 152 -8 181 -58 241 -55 65 -174
98 -261 72z m117 -179 c17 -11 33 -58 33 -98 l0 -34 -76 0 -76 0 4 56 c3 40
10 61 23 70 20 15 73 18 92 6z"/>
<path d="M2735 2930 c-58 -23 -117 -86 -134 -140 -6 -20 -11 -96 -11 -168 0
-179 -10 -172 241 -172 207 0 232 5 249 53 14 40 13 203 -2 267 -14 61 -63
122 -122 152 -59 30 -157 34 -221 8z m150 -174 c13 -9 20 -30 23 -70 l4 -56
-76 0 -76 0 0 34 c0 40 16 87 33 98 19 12 72 9 92 -6z"/>
<path d="M978 2583 c-1 -5 -25 -20 -53 -35 -27 -14 -55 -36 -61 -47 -6 -11
-18 -29 -27 -39 -24 -26 -36 -96 -37 -205 0 -119 13 -151 68 -166 48 -14 326
-14 375 0 63 17 69 38 65 199 -1 79 -7 144 -13 148 -6 4 -22 25 -36 47 -17 26
-45 50 -75 65 -27 14 -50 28 -52 33 -2 4 -37 7 -77 7 -40 0 -75 -3 -77 -7z
m122 -191 c18 -14 24 -32 28 -75 l4 -57 -76 0 -76 0 0 50 c0 28 5 50 10 50 6
0 9 5 8 12 -3 13 38 38 63 38 9 0 27 -8 39 -18z"/>
<path d="M997 2020 c-52 -13 -98 -38 -120 -66 -10 -13 -24 -30 -30 -37 -37
-38 -59 -201 -43 -311 11 -71 27 -76 256 -76 179 0 194 1 222 21 l29 21 -3
151 c-2 109 -6 152 -15 155 -7 2 -13 9 -13 16 0 20 -78 95 -116 111 -47 20
-121 26 -167 15z m109 -196 c10 -14 19 -47 22 -75 l5 -49 -77 0 -76 0 0 49 c0
37 5 54 25 75 32 35 78 35 101 0z"/>
<path d="M3938 2583 c-1 -5 -24 -19 -51 -32 -30 -15 -61 -42 -85 -75 l-37 -51
-3 -138 c-4 -161 3 -179 70 -197 62 -17 366 -9 395 10 33 21 43 61 43 164 -1
103 -13 172 -37 198 -9 10 -21 28 -27 39 -6 11 -33 33 -61 47 -27 15 -51 30
-53 35 -2 4 -37 7 -77 7 -40 0 -75 -3 -77 -7z m112 -186 c14 -8 24 -19 23 -25
-2 -7 2 -12 7 -12 6 0 10 -22 10 -50 l0 -50 -76 0 -76 0 4 57 c7 81 48 111
108 80z"/>
<path d="M3955 2021 c-16 -5 -42 -13 -58 -20 -31 -12 -107 -88 -107 -107 0 -7
-6 -14 -12 -16 -10 -3 -14 -46 -16 -155 l-3 -151 29 -21 c28 -20 43 -21 222
-21 262 0 260 -1 260 176 0 117 -15 176 -56 221 -18 21 -34 41 -34 44 0 4 -22
16 -48 27 -56 24 -135 34 -177 23z m96 -181 c10 -6 19 -17 19 -25 0 -8 5 -15
10 -15 6 0 10 -22 10 -50 l0 -50 -76 0 -77 0 5 49 c8 87 51 122 109 91z"/>
</g>
</svg>
