<?xml version="1.0"?>
<svg xmlns="http://www.w3.org/2000/svg" id="Layer_1" data-name="Layer 1" viewBox="0 0 128 128" width="512" height="512"><title>UNIVERSITY BUILDING</title><path d="M117,101.573h-7.825V58.9a1.75,1.75,0,0,0-1.75-1.75H86.1v-2.37a1.748,1.748,0,0,0-.623-1.338L65.75,36.827V32.842H77.083a1.75,1.75,0,0,0,1.387-2.817l-2.386-3.1,2.386-3.1a1.75,1.75,0,0,0-1.387-2.817H65.75v-2.25a1.75,1.75,0,1,0-3.5,0V36.827L42.526,53.439a1.748,1.748,0,0,0-.623,1.338v2.37H20.575a1.75,1.75,0,0,0-1.75,1.75v42.675H11a1.75,1.75,0,0,0,0,3.5H36.8v4.168a1.75,1.75,0,0,0,1.75,1.75h50.9a1.75,1.75,0,0,0,1.75-1.75v-4.168H117a1.75,1.75,0,0,0,0-3.5ZM105.675,60.648v40.925H86.1V60.648ZM45.4,101.573V99.155H82.6v2.418ZM76.486,78.035v17.62H65.75V78.035ZM62.25,95.655H51.514V78.035H62.25ZM73.527,24.509l-1.039,1.349a1.75,1.75,0,0,0,0,2.135l1.039,1.349H65.75V24.509ZM45.4,55.592,64,39.928,82.6,55.592V95.655h-2.61V76.285a1.75,1.75,0,0,0-1.75-1.75H49.764a1.75,1.75,0,0,0-1.75,1.75v19.37H45.4ZM22.325,60.648H41.9v40.925H22.325ZM87.7,107.491H40.3v-2.418H87.7Z"/><path d="M31.95,69.733a5.289,5.289,0,0,0-5.283,5.283V78.55a1.75,1.75,0,0,0,1.75,1.75h7.066a1.75,1.75,0,0,0,1.75-1.75V75.017A5.289,5.289,0,0,0,31.95,69.733ZM33.733,76.8H30.167V75.017a1.783,1.783,0,0,1,3.566,0Z"/><path d="M31.95,81.921A5.289,5.289,0,0,0,26.667,87.2v3.533a1.75,1.75,0,0,0,1.75,1.75h7.066a1.75,1.75,0,0,0,1.75-1.75V87.2A5.289,5.289,0,0,0,31.95,81.921Zm1.783,7.067H30.167V87.2a1.783,1.783,0,1,1,3.566,0Z"/><path d="M92.517,80.3h7.066a1.75,1.75,0,0,0,1.75-1.75V75.017a5.283,5.283,0,0,0-10.566,0V78.55A1.75,1.75,0,0,0,92.517,80.3Zm1.75-5.284a1.783,1.783,0,0,1,3.566,0V76.8H94.267Z"/><path d="M53.922,72.412h7.066a1.75,1.75,0,0,0,1.75-1.75V67.128a5.283,5.283,0,1,0-10.566,0v3.533A1.75,1.75,0,0,0,53.922,72.412Zm1.75-5.283a1.783,1.783,0,1,1,3.566,0v1.783H55.672Z"/><path d="M65.262,67.128v3.533a1.75,1.75,0,0,0,1.75,1.75h7.066a1.75,1.75,0,0,0,1.75-1.75V67.128a5.283,5.283,0,1,0-10.566,0Zm3.5,0a1.783,1.783,0,1,1,3.566,0v1.783H68.762Z"/><path d="M92.517,92.488h7.066a1.75,1.75,0,0,0,1.75-1.75V87.2a5.283,5.283,0,1,0-10.566,0v3.533A1.75,1.75,0,0,0,92.517,92.488Zm1.75-5.283a1.783,1.783,0,1,1,3.566,0v1.783H94.267Z"/><path d="M64,59.6a6.12,6.12,0,1,0-6.12-6.12A6.127,6.127,0,0,0,64,59.6Zm0-8.74a2.62,2.62,0,1,1-2.62,2.62A2.623,2.623,0,0,1,64,50.861Z"/></svg>
