<?xml version="1.0" standalone="no"?>
<!DOCTYPE svg PUBLIC "-//W3C//DTD SVG 20010904//EN"
 "http://www.w3.org/TR/2001/REC-SVG-20010904/DTD/svg10.dtd">
<svg version="1.0" xmlns="http://www.w3.org/2000/svg"
 width="512.000000pt" height="512.000000pt" viewBox="0 0 512.000000 512.000000"
 preserveAspectRatio="xMidYMid meet">
<metadata>
Created by potrace 1.15, written by Peter Selinger 2001-2017
</metadata>
<g transform="translate(0.000000,512.000000) scale(0.100000,-0.100000)"
fill="#000000" stroke="none">
<path d="M1533 4809 c-40 -12 -80 -59 -91 -107 -34 -145 -47 -184 -81 -242
-41 -68 -129 -162 -195 -206 -107 -73 -229 -109 -410 -122 -114 -8 -118 -10
-151 -42 -41 -39 -51 -64 -64 -155 -43 -295 -34 -812 15 -866 24 -27 94 -26
119 1 17 19 17 32 6 227 -12 210 -4 456 19 598 5 33 10 63 10 68 0 4 22 7 49
7 256 0 517 117 668 300 68 82 138 224 156 315 l14 70 963 0 963 0 14 -70 c18
-91 88 -233 156 -315 151 -183 412 -300 668 -300 27 0 49 -3 49 -7 0 -5 5 -39
10 -78 21 -141 29 -388 19 -560 -6 -93 -11 -184 -12 -202 -2 -47 27 -73 78
-73 42 0 65 15 78 52 17 49 28 403 18 574 -25 407 -46 445 -248 457 -137 9
-218 28 -318 77 -184 89 -303 238 -343 432 -20 94 -38 128 -79 155 -25 17 -91
18 -1038 20 -596 1 -1023 -2 -1042 -8z"/>
<path d="M1770 4462 c-27 -14 -46 -39 -81 -104 -148 -277 -351 -439 -658 -527
-176 -51 -187 -76 -177 -406 15 -522 147 -991 405 -1438 32 -56 46 -89 38 -92
-17 -5 -141 -25 -158 -25 -8 0 -40 46 -71 103 -118 211 -225 481 -289 726 -32
123 -56 161 -103 161 -28 0 -72 -33 -81 -59 -6 -21 30 -173 77 -321 47 -149
120 -323 203 -490 42 -83 75 -153 73 -154 -2 -2 -81 -19 -176 -40 -199 -43
-218 -50 -238 -87 -20 -39 -18 -73 11 -196 14 -58 24 -107 23 -109 -2 -1 -48
-14 -103 -29 -55 -15 -172 -49 -260 -76 -185 -57 -205 -71 -205 -146 0 -45 2
-48 115 -162 l115 -117 -25 -133 c-37 -197 -32 -237 32 -270 34 -17 51 -14
230 40 236 71 513 141 753 188 282 56 271 53 292 82 19 25 19 28 0 160 -14 98
-16 136 -8 141 6 4 30 -11 56 -35 202 -192 283 -258 650 -526 152 -112 291
-207 312 -213 28 -8 48 -8 76 0 22 7 157 99 313 213 371 273 431 321 654 531
61 57 66 44 43 -111 -19 -133 -19 -135 0 -160 22 -30 19 -29 267 -76 229 -44
515 -115 763 -190 194 -58 211 -61 245 -44 64 33 69 73 32 270 l-25 133 115
117 c113 114 115 117 115 162 0 76 -19 89 -220 151 -96 29 -214 63 -262 76
-49 13 -88 26 -88 31 0 4 11 55 25 113 31 133 31 157 -1 195 -29 35 -43 39
-249 83 -82 17 -151 32 -153 33 -2 2 30 70 71 151 117 233 206 472 267 713 24
95 18 130 -26 150 -68 31 -104 -1 -133 -116 -65 -256 -183 -556 -306 -773 -26
-47 -49 -87 -51 -89 -3 -4 -165 19 -176 25 -3 2 17 43 44 92 155 266 279 588
341 887 46 216 61 372 62 610 0 291 -3 296 -177 346 -306 88 -509 251 -657
527 -72 134 14 122 -871 122 -714 0 -757 -1 -790 -18z m1531 -209 c74 -147
229 -319 376 -416 95 -63 217 -120 327 -152 50 -14 92 -28 95 -31 11 -11 5
-358 -8 -464 -49 -414 -195 -838 -405 -1178 -53 -86 -60 -93 -84 -88 -36 7
-290 33 -482 48 -202 16 -918 16 -1120 0 -192 -15 -446 -41 -482 -48 -24 -5
-31 2 -81 84 -215 346 -359 764 -408 1182 -13 106 -19 453 -8 464 3 3 45 17
95 31 110 32 232 89 327 152 145 96 298 265 377 416 l35 67 706 0 706 0 34
-67z m-371 -2433 c469 -24 928 -83 1345 -173 135 -29 150 -34 147 -52 -4 -24
-104 -469 -107 -473 -1 -1 -51 9 -111 22 -279 64 -735 129 -1099 158 -93 7
-322 13 -545 13 -223 0 -452 -6 -545 -13 -364 -29 -820 -94 -1099 -158 -60
-13 -110 -23 -111 -22 -9 10 -112 484 -107 490 10 9 274 63 476 98 583 99
1202 138 1756 110z m-2296 -692 c34 -144 42 -164 74 -177 15 -5 108 -31 207
-56 99 -26 181 -48 183 -50 2 -1 -32 -10 -75 -20 -136 -29 -348 -84 -509 -130
-86 -25 -158 -44 -159 -43 -1 2 8 57 21 123 12 66 20 131 17 145 -3 14 -46 66
-96 117 l-89 91 98 31 c158 48 268 79 286 80 13 1 22 -22 42 -111z m3989 86
c51 -14 136 -39 191 -55 l98 -31 -89 -91 c-50 -51 -93 -103 -96 -117 -3 -14 5
-79 17 -145 13 -66 22 -121 21 -123 -1 -1 -73 18 -159 43 -161 46 -373 101
-509 130 -43 10 -77 19 -75 21 2 1 91 25 198 53 122 32 201 57 213 69 11 11
28 62 43 128 32 138 33 144 45 144 6 0 51 -12 102 -26z m-1780 -63 l69 -6
-169 -125 c-92 -68 -175 -124 -183 -124 -8 0 -91 56 -183 124 l-169 125 64 6
c86 8 487 8 571 0z m-792 -90 c157 -128 443 -331 477 -337 17 -3 47 -3 65 0
33 6 320 210 477 339 l85 69 105 -7 c58 -3 109 -10 113 -14 18 -18 -239 -224
-685 -550 l-128 -93 -128 93 c-450 329 -703 532 -685 549 8 9 64 15 164 18 56
2 57 1 140 -67z"/>
<path d="M1835 3588 c-11 -6 -23 -16 -27 -22 -4 -6 -8 -270 -8 -587 0 -536 1
-577 18 -591 41 -37 140 -29 162 12 6 11 10 121 10 264 l0 246 139 0 c161 0
171 4 171 75 0 68 -17 75 -177 75 l-133 0 0 185 0 185 250 0 c237 0 251 1 270
20 14 14 20 33 20 68 0 84 11 82 -356 82 -219 -1 -325 -4 -339 -12z"/>
<path d="M2884 3590 c-148 -30 -240 -131 -265 -293 -7 -41 -9 -187 -7 -370 4
-288 5 -305 27 -362 32 -81 106 -154 186 -185 79 -30 233 -33 315 -6 113 38
191 108 218 196 35 113 19 184 -42 196 -48 8 -104 -3 -115 -24 -5 -9 -12 -38
-16 -65 -8 -53 -36 -100 -78 -131 -23 -17 -43 -21 -106 -21 -67 0 -83 4 -118
27 -74 49 -78 65 -81 383 -4 316 0 370 31 417 31 46 98 78 164 78 104 0 164
-45 184 -138 15 -69 30 -88 75 -97 114 -21 153 72 92 217 -24 56 -91 122 -153
148 -85 37 -214 49 -311 30z"/>
</g>
</svg>
