<?xml version="1.0" standalone="no"?>
<!DOCTYPE svg PUBLIC "-//W3C//DTD SVG 20010904//EN"
 "http://www.w3.org/TR/2001/REC-SVG-20010904/DTD/svg10.dtd">
<svg version="1.0" xmlns="http://www.w3.org/2000/svg"
 width="512.000000pt" height="512.000000pt" viewBox="0 0 512.000000 512.000000"
 preserveAspectRatio="xMidYMid meet">
<metadata>
Created by potrace 1.15, written by Peter Selinger 2001-2017
</metadata>
<g transform="translate(0.000000,512.000000) scale(0.100000,-0.100000)"
fill="#000000" stroke="none">
<path d="M243 5102 c-97 -34 -186 -122 -224 -222 -19 -50 -19 -77 -17 -628 l3
-577 34 -63 c41 -75 103 -135 179 -170 l57 -27 900 0 900 0 60 29 c76 38 143
105 181 181 l29 60 0 580 0 580 -27 57 c-35 76 -95 138 -170 179 l-63 34 -895
2 c-839 2 -898 1 -947 -15z m1747 -315 l25 -13 3 -501 c2 -446 0 -503 -14
-517 -14 -14 -101 -16 -833 -16 -749 0 -820 1 -832 17 -12 13 -14 106 -14 510
l0 495 24 19 c22 18 50 19 820 19 622 0 801 -3 821 -13z"/>
<path d="M3028 5106 c-102 -37 -182 -109 -227 -205 l-26 -56 0 -1220 0 -1220
29 -60 c38 -76 105 -143 181 -181 l60 -29 900 0 900 0 57 27 c76 35 138 95
179 170 l34 63 0 1230 0 1230 -27 55 c-35 71 -107 143 -178 178 l-55 27 -895
2 c-719 2 -902 0 -932 -11z m1743 -325 l24 -19 0 -1135 c0 -946 -2 -1137 -14
-1150 -12 -16 -83 -17 -832 -17 -731 0 -819 2 -833 16 -15 14 -16 129 -14
1157 l3 1141 25 13 c20 10 199 13 821 13 770 0 798 -1 820 -19z"/>
<path d="M263 2976 c-99 -32 -178 -99 -230 -198 l-28 -53 0 -1230 0 -1230 27
-55 c35 -71 107 -143 178 -178 l55 -27 910 0 910 0 63 34 c75 41 135 103 170
179 l27 57 0 1220 0 1220 -29 60 c-38 76 -105 143 -181 181 l-60 29 -885 2
c-712 1 -893 -1 -927 -11z m1741 -332 c14 -14 16 -132 16 -1153 0 -1047 -1
-1140 -17 -1152 -13 -12 -157 -14 -823 -17 -785 -2 -808 -2 -831 17 l-24 19 0
1135 c0 946 2 1137 14 1150 12 16 83 17 832 17 730 0 819 -2 833 -16z"/>
<path d="M3022 1690 c-74 -27 -140 -77 -185 -140 -69 -99 -68 -92 -65 -716 l3
-559 27 -57 c35 -76 95 -138 170 -179 l63 -34 910 0 910 0 55 27 c71 35 143
107 178 178 l27 55 0 590 0 590 -34 63 c-41 75 -103 135 -179 170 l-57 27
-885 2 c-851 2 -887 2 -938 -17z m1759 -327 c12 -13 14 -106 14 -510 l0 -495
-24 -19 c-22 -18 -50 -19 -820 -19 -622 0 -801 3 -821 13 l-25 13 -3 501 c-2
446 0 503 14 517 14 14 101 16 833 16 749 0 820 -1 832 -17z"/>
</g>
</svg>
