<?xml version="1.0" standalone="no"?>
<!DOCTYPE svg PUBLIC "-//W3C//DTD SVG 20010904//EN"
 "http://www.w3.org/TR/2001/REC-SVG-20010904/DTD/svg10.dtd">
<svg version="1.0" xmlns="http://www.w3.org/2000/svg"
 width="384.000000pt" height="363.000000pt" viewBox="0 0 384.000000 363.000000"
 preserveAspectRatio="xMidYMid meet">
<metadata>
Created by potrace 1.15, written by Peter Selinger 2001-2017
</metadata>
<g transform="translate(0.000000,363.000000) scale(0.100000,-0.100000)"
fill="#000000" stroke="none">
<path d="M2966 3608 c-16 -26 -96 -314 -96 -347 0 -32 44 -71 79 -71 56 0 75
31 120 201 46 174 47 185 25 217 -22 32 -107 32 -128 0z"/>
<path d="M1975 3453 c-16 -8 -43 -27 -58 -42 -15 -14 -252 -310 -525 -658
l-497 -633 -335 -193 c-294 -168 -344 -201 -406 -262 -72 -71 -107 -128 -139
-223 -13 -42 -16 -79 -13 -170 3 -107 6 -123 36 -186 45 -96 96 -162 165 -212
140 -103 294 -136 449 -95 l66 17 188 -326 c103 -179 202 -344 221 -367 21
-27 57 -54 98 -74 60 -29 70 -31 148 -27 96 5 149 29 210 97 63 70 72 95 72
202 l0 95 -114 200 c-63 109 -121 209 -128 220 -13 21 -9 24 91 83 148 87 152
97 76 229 -44 77 -48 88 -32 94 9 4 103 23 207 43 105 20 289 56 410 80 121
24 351 69 510 100 363 70 366 70 414 111 59 51 84 111 79 187 -3 60 -11 76
-139 298 l-135 235 85 127 c55 84 84 137 84 155 0 32 -152 298 -185 325 -20
17 -35 18 -133 13 -60 -4 -130 -9 -155 -12 l-45 -5 -140 242 c-76 134 -153
259 -170 278 -16 19 -48 42 -70 52 -50 23 -148 24 -190 2z m142 -165 c11 -13
56 -86 100 -163 94 -165 434 -754 644 -1117 82 -141 149 -265 149 -276 0 -31
-32 -62 -71 -68 l-35 -6 -106 183 c-58 101 -264 458 -457 792 -193 334 -351
612 -351 616 0 4 11 20 25 35 30 33 74 35 102 4z m19 -623 c136 -236 327 -567
424 -735 l176 -305 -236 -47 c-518 -103 -1007 -197 -1033 -200 -28 -3 -35 8
-223 332 -106 184 -192 339 -191 344 7 21 823 1053 828 1047 4 -3 118 -199
255 -436z m704 -21 l48 -81 -42 -65 -43 -66 -81 141 c-44 77 -79 145 -76 149
3 5 37 8 76 6 l70 -3 48 -81z m-1851 -817 c36 -61 118 -203 182 -314 82 -142
113 -205 105 -211 -11 -9 -141 -84 -453 -262 -84 -48 -172 -93 -197 -100 -25
-7 -78 -11 -123 -8 -139 7 -246 75 -305 196 -31 62 -33 74 -33 167 0 89 3 106
28 157 16 32 48 77 72 100 39 38 624 386 650 387 6 1 39 -50 74 -112z m414
-716 c39 -66 41 -61 -34 -104 -52 -30 -49 -31 -92 44 l-27 47 58 35 c31 19 58
36 58 36 1 1 18 -26 37 -58z m-252 -164 c19 -34 105 -181 190 -327 149 -257
154 -267 154 -322 0 -47 -4 -61 -25 -83 -55 -59 -132 -72 -190 -33 -45 31
-426 689 -406 700 7 4 60 34 117 67 57 33 109 61 114 61 6 0 26 -28 46 -63z"/>
<path d="M935 1445 c-31 -30 -32 -73 -4 -109 43 -55 139 -18 139 54 0 19 -9
40 -25 55 -15 16 -36 25 -55 25 -19 0 -40 -9 -55 -25z"/>
<path d="M630 1274 c-92 -54 -120 -56 -171 -9 -22 19 -50 35 -63 35 -31 0 -72
-33 -80 -65 -18 -71 107 -174 211 -175 50 0 223 84 261 126 29 33 29 78 -3
109 -35 35 -69 31 -155 -21z"/>
<path d="M3520 3199 c-118 -67 -223 -129 -233 -138 -44 -43 -6 -131 56 -131
30 0 430 213 475 253 50 45 14 138 -54 137 -18 -1 -110 -46 -244 -121z"/>
<path d="M3340 2607 c-54 -27 -61 -103 -13 -134 13 -9 72 -29 131 -45 222 -60
250 -61 277 -8 20 38 19 52 -5 83 -20 26 -31 30 -150 62 -36 10 -85 23 -110
30 -77 23 -104 25 -130 12z"/>
</g>
</svg>
