<?xml version="1.0" standalone="no"?>
<!DOCTYPE svg PUBLIC "-//W3C//DTD SVG 20010904//EN"
 "http://www.w3.org/TR/2001/REC-SVG-20010904/DTD/svg10.dtd">
<svg version="1.0" xmlns="http://www.w3.org/2000/svg"
 width="512.000000pt" height="512.000000pt" viewBox="0 0 512.000000 512.000000"
 preserveAspectRatio="xMidYMid meet">
<metadata>
Created by potrace 1.15, written by Peter Selinger 2001-2017
</metadata>
<g transform="translate(0.000000,512.000000) scale(0.100000,-0.100000)"
fill="#000000" stroke="none">
<path d="M2236 5103 c-2 -10 -17 -77 -32 -149 l-27 -131 -71 -23 c-39 -12
-107 -40 -152 -62 l-81 -39 -125 80 c-68 45 -129 81 -134 81 -5 0 -107 -98
-227 -218 l-217 -218 40 -94 c22 -51 40 -97 40 -101 0 -4 -26 -10 -57 -14 -83
-8 -205 -49 -267 -89 -119 -76 -215 -208 -250 -342 -21 -83 -22 -385 -1 -464
26 -98 74 -180 152 -260 40 -41 72 -81 71 -89 -2 -10 -40 -24 -108 -41 l-105
-26 -200 117 -200 118 -142 0 -143 1 0 -859 0 -859 408 -136 c389 -130 411
-136 488 -136 l82 0 6 34 7 35 123 -74 c121 -73 123 -76 129 -115 12 -91 94
-176 195 -202 34 -8 43 -16 47 -37 3 -14 18 -51 33 -81 33 -64 87 -107 158
-125 45 -11 47 -13 64 -68 10 -31 32 -74 49 -96 34 -43 119 -91 162 -91 24 0
27 -5 33 -45 9 -60 61 -133 118 -169 64 -39 160 -47 233 -19 l50 19 58 -48
c70 -58 112 -71 209 -67 62 4 83 9 124 34 57 36 103 104 111 164 5 39 8 42 44
47 97 16 194 111 206 202 5 37 7 40 54 50 97 23 168 93 191 188 12 49 13 50
60 62 108 25 196 132 198 239 l0 33 740 370 740 370 0 610 0 610 -93 0 -93 0
-134 -71 -135 -71 -45 16 c-25 9 -124 36 -220 60 -109 28 -176 49 -178 58 -1
7 31 47 71 88 54 55 84 96 110 150 52 111 60 159 55 365 -6 212 -19 261 -102
384 -94 138 -227 222 -393 249 -51 8 -93 18 -93 22 0 4 18 49 41 100 l40 94
-218 218 c-120 120 -222 218 -227 218 -5 0 -65 -36 -133 -80 l-124 -80 -82 39
c-45 21 -114 49 -153 61 l-71 23 -27 131 c-15 72 -30 139 -32 149 -5 16 -29
17 -324 17 -295 0 -319 -1 -324 -17z m529 -288 l28 -135 41 -11 c137 -35 254
-82 357 -144 l59 -37 118 76 117 76 127 -127 128 -128 -44 -105 c-44 -104 -45
-105 -108 -143 -34 -21 -75 -50 -89 -63 l-26 -25 -58 76 c-428 559 -1282 559
-1710 0 -32 -41 -60 -75 -63 -75 -2 0 -22 16 -44 35 -21 20 -58 45 -83 57 -41
20 -46 27 -89 132 l-46 110 127 128 128 128 117 -76 118 -76 59 37 c99 60 223
110 357 144 l41 11 28 135 28 135 177 0 177 0 28 -135z m38 -479 c156 -47 287
-124 398 -237 71 -72 149 -181 149 -208 0 -9 -10 -41 -22 -71 -30 -76 -39
-378 -14 -484 25 -106 79 -200 163 -284 40 -40 73 -77 73 -82 0 -10 -14 -14
-200 -60 l-135 -32 -155 39 c-104 26 -156 44 -158 54 -1 8 30 48 70 89 79 81
126 164 153 265 21 81 21 345 0 434 -77 327 -404 523 -724 434 -151 -41 -298
-164 -364 -303 -48 -103 -57 -155 -57 -343 0 -246 36 -351 168 -487 40 -41 71
-81 70 -89 -2 -10 -54 -28 -158 -54 l-155 -39 -135 32 c-186 46 -200 50 -200
60 0 5 33 42 73 82 84 84 138 178 163 284 12 54 15 106 12 239 -4 153 -7 177
-31 240 l-26 70 26 45 c122 212 340 365 604 425 102 23 302 14 412 -19z
m-1410 -329 c101 -46 190 -146 228 -255 29 -81 36 -262 15 -361 -25 -117 -89
-209 -185 -266 l-51 -30 0 -137 c0 -76 2 -138 5 -138 7 0 238 -59 253 -65 9
-3 2 -20 -23 -56 -41 -60 -61 -122 -71 -219 -6 -60 -10 -71 -28 -75 -159 -36
-198 -45 -208 -45 -7 0 -9 25 -4 84 l7 83 -212 123 c-135 79 -206 126 -197
130 7 4 46 15 86 25 l72 17 0 134 0 133 -52 34 c-94 60 -156 145 -184 252 -16
59 -18 280 -3 345 22 98 101 208 187 262 102 63 258 74 365 25z m1331 -6 c120
-59 202 -165 232 -299 23 -105 16 -295 -16 -375 -29 -76 -91 -152 -163 -200
l-57 -38 0 -134 0 -133 246 -61 c265 -66 305 -81 351 -134 56 -64 64 -102 61
-297 -3 -173 -3 -175 -25 -178 -13 -2 -150 33 -306 77 -155 45 -296 81 -312
81 -17 0 -129 32 -250 70 -121 39 -258 77 -304 85 -127 23 -330 17 -423 -11
-43 -13 -6 121 50 179 44 46 85 62 327 121 127 32 238 60 248 62 15 5 17 20
17 139 l0 134 -57 38 c-72 48 -134 124 -164 200 -18 46 -23 84 -27 189 -2 77
0 152 7 185 24 113 85 207 180 271 111 77 264 89 385 29z m1320 0 c115 -57
197 -158 231 -286 19 -74 20 -271 1 -340 -28 -107 -90 -192 -183 -252 l-53
-34 0 -133 0 -134 195 -48 c107 -27 195 -51 195 -54 0 -4 -823 -442 -860 -458
-4 -1 -10 62 -13 140 -6 163 -20 222 -72 297 -25 36 -32 53 -23 56 7 2 51 14
98 25 47 12 102 26 123 31 l37 10 0 137 0 137 -51 30 c-135 80 -199 214 -199
420 0 211 54 335 185 425 115 79 267 91 389 31z m-3532 -1202 c161 -94 295
-173 297 -175 6 -5 -291 -1184 -298 -1184 -3 0 -81 25 -173 56 l-168 56 0 709
0 709 24 0 c14 0 157 -77 318 -171z m4438 -474 l0 -455 -691 -345 -690 -346
-37 32 c-20 18 -184 166 -365 328 -371 335 -398 354 -517 359 -41 2 -94 -1
-116 -7 -22 -6 -123 -60 -225 -121 -195 -117 -231 -128 -275 -92 -47 38 -60
120 -25 163 11 14 135 81 289 158 355 176 313 172 700 62 228 -66 295 -81 350
-81 l68 0 759 400 c418 220 763 400 768 400 4 0 7 -205 7 -455z m-3867 141
c37 -21 67 -43 67 -49 0 -19 -301 -1071 -309 -1079 -4 -5 -41 4 -83 18 l-76
25 144 572 c79 315 144 574 144 576 0 2 10 -3 23 -11 12 -8 52 -32 90 -52z
m1118 -186 c41 -10 94 -25 119 -33 l45 -14 -213 -106 c-116 -59 -229 -122
-250 -141 -63 -57 -87 -116 -86 -216 0 -91 15 -134 68 -197 61 -72 193 -109
286 -80 25 7 126 62 224 120 98 59 194 109 213 113 66 12 106 -17 460 -335
186 -167 350 -317 366 -333 34 -36 37 -86 5 -116 -31 -28 -71 -37 -100 -21
-12 6 -126 97 -251 202 -125 104 -229 188 -230 186 -2 -2 -26 -32 -55 -65 -29
-34 -52 -64 -52 -68 0 -3 98 -87 218 -186 119 -100 223 -190 231 -201 37 -52
-4 -119 -74 -119 -38 0 -54 11 -275 195 -129 107 -237 195 -240 194 -3 0 -29
-30 -59 -66 -45 -54 -51 -67 -40 -77 8 -7 109 -92 226 -190 117 -97 217 -185
223 -195 16 -30 12 -47 -16 -80 -33 -39 -76 -41 -128 -6 -74 50 -193 156 -222
198 -30 43 -107 90 -165 102 -23 4 -29 13 -39 55 -7 27 -27 69 -46 94 -36 47
-119 96 -164 96 -22 0 -27 6 -38 53 -23 98 -109 182 -200 194 -37 5 -40 8 -45
44 -11 86 -93 176 -181 200 -54 15 -141 7 -191 -16 -22 -10 -85 -63 -140 -117
-55 -54 -102 -97 -106 -96 -3 2 -58 34 -121 72 l-115 69 111 385 111 385 285
64 c157 35 310 68 340 73 77 12 224 3 311 -20z m-532 -971 c39 -14 65 -59 56
-98 -4 -18 -41 -63 -99 -120 -82 -80 -98 -91 -128 -91 -45 0 -88 40 -88 83 0
24 17 48 93 124 50 52 101 99 112 103 11 5 20 9 21 9 1 1 15 -4 33 -10z m260
-254 c38 -19 55 -62 41 -99 -13 -34 -144 -172 -182 -192 -40 -21 -72 -17 -102
12 -18 19 -26 37 -26 62 0 29 11 46 78 114 76 80 125 118 150 118 7 0 26 -7
41 -15z m250 -250 c32 -16 41 -33 41 -77 0 -25 -17 -48 -92 -125 -51 -51 -103
-96 -115 -99 -56 -14 -116 44 -105 101 6 33 193 215 221 215 12 0 35 -7 50
-15z m265 -261 c18 -18 26 -37 26 -61 0 -28 -12 -46 -80 -117 -100 -104 -135
-125 -180 -106 -19 8 -38 27 -47 46 -23 47 -7 76 96 178 77 75 93 86 123 86
25 0 43 -8 62 -26z m273 -272 c12 -50 -33 -102 -91 -102 -22 0 -106 55 -106
69 0 4 14 20 31 37 17 16 39 44 50 61 l20 33 45 -38 c25 -20 47 -47 51 -60z"/>
</g>
</svg>
