<?xml version="1.0" standalone="no"?>
<!DOCTYPE svg PUBLIC "-//W3C//DTD SVG 20010904//EN"
 "http://www.w3.org/TR/2001/REC-SVG-20010904/DTD/svg10.dtd">
<svg version="1.0" xmlns="http://www.w3.org/2000/svg"
 width="384.000000pt" height="351.000000pt" viewBox="0 0 384.000000 351.000000"
 preserveAspectRatio="xMidYMid meet">
<metadata>
Created by potrace 1.15, written by Peter Selinger 2001-2017
</metadata>
<g transform="translate(0.000000,351.000000) scale(0.100000,-0.100000)"
fill="#000000" stroke="none">
<path d="M1765 3487 c-159 -60 -279 -202 -305 -363 -6 -33 -10 -204 -10 -381
l0 -323 -497 0 c-325 0 -519 -4 -562 -11 -151 -26 -285 -127 -353 -266 l-33
-68 0 -660 0 -660 32 -68 c40 -85 124 -174 203 -216 112 -60 126 -61 881 -61
l686 0 199 -183 c236 -216 250 -227 281 -227 34 0 74 29 89 67 21 50 20 1148
-1 1199 -29 70 -131 79 -173 16 -15 -23 -18 -74 -22 -483 l-5 -456 -135 124
c-74 69 -147 131 -162 139 -23 12 -147 14 -750 14 -578 1 -731 4 -761 14 -55
20 -103 61 -134 114 l-28 47 -3 595 c-2 434 0 607 9 638 14 52 77 125 133 155
41 22 46 22 573 25 l532 3 3 -521 3 -522 33 -29 c39 -35 83 -38 127 -10 17 11
118 101 225 200 l195 180 686 1 c412 0 708 4 740 10 140 26 272 127 337 259
l37 75 0 661 0 661 -37 75 c-47 95 -130 177 -225 222 l-68 32 -840 2 -840 2
-60 -22z m1736 -205 c60 -31 113 -93 129 -150 16 -60 13 -1197 -4 -1245 -20
-55 -61 -103 -114 -134 l-47 -28 -741 -5 -740 -5 -40 -26 c-21 -15 -92 -74
-156 -133 -65 -58 -120 -106 -123 -106 -3 0 -4 379 -3 843 3 774 4 845 20 873
27 49 77 95 133 120 l50 24 791 0 792 0 53 -28z"/>
<path d="M2528 2945 c-89 -47 -151 -133 -164 -226 -12 -89 51 -153 128 -130
44 13 63 39 74 95 15 83 98 115 149 60 44 -48 35 -73 -59 -158 -92 -83 -126
-138 -126 -202 0 -49 22 -82 66 -100 29 -12 39 -12 68 0 36 15 66 50 66 78 0
10 8 26 19 36 172 161 193 193 192 293 0 105 -68 210 -166 255 -71 34 -181 33
-247 -1z"/>
<path d="M2571 2174 c-74 -62 -34 -173 62 -174 101 0 136 139 47 185 -42 22
-74 19 -109 -11z"/>
<path d="M673 1526 c-31 -14 -63 -60 -63 -91 0 -30 30 -75 61 -91 99 -50 196
74 122 156 -33 36 -76 45 -120 26z"/>
<path d="M1003 1526 c-31 -14 -63 -60 -63 -91 0 -30 30 -75 61 -91 99 -51 201
83 121 159 -34 33 -77 41 -119 23z"/>
</g>
</svg>
