<?xml version="1.0" standalone="no"?>
<!DOCTYPE svg PUBLIC "-//W3C//DTD SVG 20010904//EN"
 "http://www.w3.org/TR/2001/REC-SVG-20010904/DTD/svg10.dtd">
<svg version="1.0" xmlns="http://www.w3.org/2000/svg"
 width="356.000000pt" height="384.000000pt" viewBox="0 0 356.000000 384.000000"
 preserveAspectRatio="xMidYMid meet">
<metadata>
Created by potrace 1.15, written by Peter Selinger 2001-2017
</metadata>
<g transform="translate(0.000000,384.000000) scale(0.100000,-0.100000)"
fill="#000000" stroke="none">
<path d="M0 3385 l0 -455 453 2 452 3 3 453 2 452 -455 0 -455 0 0 -455z m740
5 l0 -290 -285 0 -284 0 -3 290 -3 290 288 0 287 0 0 -290z"/>
<path d="M1140 3575 l0 -95 1180 0 1180 0 0 95 0 95 -1180 0 -1180 0 0 -95z"/>
<path d="M1140 3255 l0 -95 850 0 850 0 0 95 0 95 -850 0 -850 0 0 -95z"/>
<path d="M0 2405 l0 -455 455 0 455 0 0 455 0 455 -455 0 -455 0 0 -455z m740
0 l0 -285 -287 0 -288 0 3 285 3 285 284 0 285 0 0 -285z"/>
<path d="M1140 2645 l0 -95 1180 0 1180 0 0 95 0 95 -1180 0 -1180 0 0 -95z"/>
<path d="M1142 2328 c2 -51 6 -92 11 -90 4 1 385 2 847 2 l840 0 0 90 0 90
-850 0 -851 0 3 -92z"/>
<path d="M0 1430 l0 -460 455 0 455 0 -2 458 -3 457 -452 3 -453 2 0 -460z
m740 -5 l0 -285 -285 0 -284 0 -3 285 -3 285 288 0 287 0 0 -285z"/>
<path d="M1190 1635 l0 -95 1185 0 1185 0 0 95 0 95 -1185 0 -1185 0 0 -95z"/>
<path d="M1190 1325 l0 -95 855 0 855 0 0 95 0 95 -855 0 -855 0 0 -95z"/>
<path d="M0 455 l0 -455 455 0 455 0 0 455 0 455 -455 0 -455 0 0 -455z m740
-5 l0 -290 -287 0 -288 0 0 290 0 290 288 0 287 0 0 -290z"/>
<path d="M1190 675 l0 -95 1185 0 1185 0 0 95 0 95 -1185 0 -1185 0 0 -95z"/>
<path d="M1190 365 l0 -95 855 0 855 0 0 95 0 95 -855 0 -855 0 0 -95z"/>
</g>
</svg>
