<?xml version="1.0" standalone="no"?>
<!DOCTYPE svg PUBLIC "-//W3C//DTD SVG 20010904//EN"
 "http://www.w3.org/TR/2001/REC-SVG-20010904/DTD/svg10.dtd">
<svg version="1.0" xmlns="http://www.w3.org/2000/svg"
 width="512.000000pt" height="512.000000pt" viewBox="0 0 512.000000 512.000000"
 preserveAspectRatio="xMidYMid meet">
<metadata>
Created by potrace 1.15, written by Peter Selinger 2001-2017
</metadata>
<g transform="translate(0.000000,512.000000) scale(0.100000,-0.100000)"
fill="#000000" stroke="none">
<path d="M1011 5105 c-190 -53 -345 -200 -408 -390 -26 -77 -27 -88 -28 -305
0 -191 3 -234 18 -285 31 -100 77 -175 155 -253 l73 -72 -3 -52 -3 -51 -276
-82 c-152 -46 -298 -94 -326 -109 -70 -35 -136 -104 -175 -184 l-33 -67 -3
-472 -3 -473 1093 0 1093 0 -205 -205 -205 -205 -50 50 c-28 28 -54 50 -58 50
-4 0 -45 -25 -91 -56 l-85 -56 -69 28 -70 29 -17 85 c-9 47 -18 93 -21 103 -5
16 -25 17 -243 17 l-237 0 -20 -102 -19 -102 -71 -29 -71 -29 -87 58 -87 58
-165 -165 c-90 -90 -164 -168 -164 -174 0 -6 25 -47 54 -92 l55 -81 -29 -68
-29 -69 -78 -18 c-43 -9 -88 -20 -101 -22 l-22 -5 0 -238 0 -238 101 -20 100
-19 30 -70 29 -69 -55 -83 c-30 -46 -55 -89 -55 -96 0 -16 311 -327 328 -327
7 0 49 25 95 55 l83 55 69 -29 70 -30 19 -101 20 -100 240 2 240 3 20 98 21
98 69 29 68 29 81 -55 c45 -29 86 -54 92 -54 6 0 84 74 174 164 l165 165 -58
86 -57 87 28 72 29 71 102 19 102 20 0 237 c0 218 -1 238 -17 243 -10 3 -56
12 -103 21 l-85 17 -29 70 -28 69 56 85 c31 46 56 87 56 92 0 4 -23 30 -50 57
l-50 50 236 236 c225 225 238 237 263 227 23 -8 110 -12 152 -5 9 1 53 -42
107 -104 l92 -107 -16 -47 c-32 -93 -1 -201 76 -267 47 -41 97 -58 169 -58
184 0 300 194 217 364 l-26 53 252 450 253 451 61 4 c79 5 147 45 189 110 l30
47 341 0 341 1 11 -24 c20 -45 72 -94 124 -116 42 -18 65 -21 118 -18 75 6
115 24 164 74 50 52 69 108 64 192 -3 55 -10 79 -34 118 -57 93 -176 136 -289
104 -53 -15 -127 -76 -145 -120 l-12 -30 -343 0 -342 0 -10 23 c-20 44 -68 90
-118 113 -147 69 -323 -15 -355 -170 -13 -66 -6 -115 27 -176 l24 -45 -247
-440 c-136 -242 -252 -445 -258 -451 -6 -7 -39 -14 -73 -17 l-62 -5 -88 105
c-48 57 -87 110 -86 116 2 7 8 35 14 62 35 150 -69 290 -224 302 -55 5 -73 2
-121 -20 l-56 -26 0 238 c0 130 -5 264 -11 297 -24 129 -109 245 -219 296 -30
14 -134 49 -230 77 -96 29 -219 66 -272 82 l-98 30 0 55 c0 54 1 55 63 113 70
66 118 140 155 239 22 59 26 86 30 237 l4 170 39 44 c41 47 164 277 152 284
-5 2 -53 19 -108 37 -142 46 -187 66 -302 132 -151 87 -195 101 -338 105 -84
2 -136 -2 -174 -12z m257 -169 c28 -8 100 -42 160 -75 59 -34 142 -76 184 -93
l77 -32 -17 -29 c-49 -84 -166 -149 -279 -155 -96 -5 -149 14 -279 99 -57 38
-111 69 -120 69 -8 0 -36 -11 -62 -24 -49 -25 -153 -59 -159 -52 -9 9 12 61
48 116 94 146 282 220 447 176z m-205 -466 c156 -96 297 -119 471 -75 l28 8
-4 -109 c-3 -93 -8 -117 -31 -166 -43 -88 -106 -152 -195 -195 -74 -37 -79
-38 -187 -38 -101 0 -115 2 -170 29 -79 39 -149 110 -188 194 -30 63 -32 74
-35 203 l-4 135 79 18 c43 9 92 23 108 31 17 7 34 14 38 14 5 1 45 -22 90 -49z
m87 -755 c41 0 96 4 123 8 l47 8 0 -33 c0 -41 -44 -98 -94 -122 -96 -46 -226
20 -226 115 l0 38 38 -7 c20 -4 71 -7 112 -7z m-232 -390 l64 -190 -32 -305
c-18 -168 -34 -315 -37 -327 -5 -22 -9 -23 -124 -23 l-119 0 0 330 0 330 -90
0 -90 0 0 -330 0 -330 -160 0 -160 0 0 343 c0 198 4 357 10 378 6 20 20 51 33
69 48 71 80 86 353 170 142 43 265 78 273 77 9 -1 38 -72 79 -192z m821 116
c265 -81 295 -93 339 -140 60 -64 62 -73 62 -463 l0 -358 -160 0 -160 0 0 330
0 330 -85 0 -85 0 0 -330 0 -330 -124 0 -124 0 -6 43 c-3 23 -20 169 -37 324
l-31 283 62 187 c68 203 68 203 78 203 4 0 126 -36 271 -79z m2034 -173 c33
-39 18 -97 -32 -117 -47 -20 -100 17 -101 70 -1 68 88 100 133 47z m1131 21
c55 -25 56 -99 3 -134 -74 -48 -150 70 -81 124 30 24 43 26 78 10z m-3714
-513 c16 -147 30 -274 30 -282 0 -11 -16 -14 -65 -14 -36 0 -65 4 -65 9 0 5
14 129 30 276 17 147 30 271 30 277 0 6 2 9 5 6 3 -2 18 -125 35 -272z m1340
-246 c30 -30 27 -83 -6 -109 -35 -28 -69 -26 -99 4 -30 30 -32 64 -4 99 26 33
79 36 109 6z m-1356 -590 c3 -22 11 -62 17 -89 l10 -49 62 -17 c34 -9 102 -37
150 -61 l88 -44 73 49 73 49 66 -65 65 -66 -49 -73 -49 -73 44 -88 c24 -48 52
-116 61 -149 l17 -62 89 -18 89 -18 0 -92 0 -92 -50 -11 c-27 -6 -67 -13 -89
-17 -38 -6 -39 -7 -56 -73 -10 -36 -38 -104 -62 -150 l-44 -84 46 -68 c25 -38
45 -72 45 -77 0 -4 -28 -36 -63 -70 l-62 -62 -73 49 -73 48 -92 -46 c-50 -26
-117 -53 -149 -60 l-56 -14 -17 -88 -17 -89 -93 0 -93 0 -11 50 c-6 27 -14 67
-17 89 -6 36 -10 40 -43 46 -49 9 -155 52 -214 87 l-48 28 -73 -49 -73 -49
-66 65 -65 66 49 73 49 73 -28 48 c-35 59 -78 165 -87 214 -6 33 -10 37 -46
43 -22 3 -62 11 -89 17 l-50 11 0 93 0 93 89 17 88 17 14 56 c7 32 34 99 60
149 l46 92 -48 73 -49 73 62 62 c34 35 66 63 70 63 5 0 39 -20 77 -45 l68 -46
84 44 c46 24 114 52 150 62 66 17 67 18 73 56 4 22 11 62 17 89 l11 50 93 0
92 0 7 -40z m1847 11 c34 -34 37 -69 9 -99 -29 -31 -65 -38 -95 -18 -47 31
-44 108 5 133 37 19 48 16 81 -16z"/>
<path d="M965 1646 c-67 -13 -180 -58 -218 -87 -16 -13 -15 -18 29 -79 26 -36
48 -67 50 -69 2 -2 36 11 76 29 179 83 378 30 499 -130 87 -116 102 -273 38
-410 -18 -39 -30 -72 -28 -74 2 -2 33 -24 69 -50 l65 -46 17 22 c10 13 31 55
47 93 132 316 -28 673 -349 778 -95 32 -204 40 -295 23z"/>
<path d="M566 1360 c-128 -236 -90 -508 98 -697 182 -181 440 -222 674 -108
39 20 72 41 72 46 0 11 -89 139 -96 139 -3 0 -33 -15 -67 -32 -59 -31 -67 -33
-172 -33 -101 0 -115 2 -170 29 -77 38 -163 124 -201 201 -26 55 -29 69 -29
165 0 98 2 110 33 174 17 37 32 70 32 71 0 6 -129 95 -138 95 -5 0 -21 -22
-36 -50z"/>
<path d="M1035 1324 c-89 -22 -151 -67 -186 -137 -71 -137 2 -311 149 -353
100 -29 195 -3 264 74 112 123 66 334 -86 397 -37 16 -113 25 -141 19z m90
-199 c69 -68 -31 -170 -102 -103 -33 30 -31 80 3 107 35 28 69 26 99 -4z"/>
<path d="M3540 5097 c-59 -39 -74 -78 -79 -199 l-3 -108 -555 0 c-623 0 -601
2 -651 -73 l-27 -41 -3 -415 c-2 -229 -1 -439 3 -468 7 -57 34 -104 78 -137
25 -19 45 -21 183 -24 l154 -3 0 -165 c0 -90 2 -164 5 -164 3 0 104 74 225
165 l220 165 330 0 c359 0 371 2 422 56 35 38 48 91 48 192 l0 82 115 0 115 0
0 -166 c0 -140 2 -165 14 -161 8 3 111 78 228 166 l213 160 222 3 c246 3 250
4 301 78 l23 34 -3 475 c-3 474 -3 476 -25 507 -48 67 -16 64 -806 64 l-714 0
-33 -23z m1410 -557 l0 -410 -223 0 -224 0 -99 -74 -99 -75 -3 75 -3 74 -204
0 -204 0 -3 273 -3 274 -27 40 c-34 52 -80 73 -157 73 l-61 0 0 80 0 80 655 0
655 0 0 -410z m-1240 -330 l0 -410 -345 0 -346 0 -99 -75 c-54 -41 -102 -75
-105 -75 -3 0 -5 34 -5 75 l0 75 -205 0 -205 0 0 410 0 410 655 0 655 0 0
-410z"/>
<path d="M4210 4540 l0 -90 85 0 85 0 0 90 0 90 -85 0 -85 0 0 -90z"/>
<path d="M4540 4540 l0 -90 85 0 85 0 0 90 0 90 -85 0 -85 0 0 -90z"/>
<path d="M2554 4447 c-3 -8 -4 -45 -2 -83 l3 -69 503 -3 502 -2 0 85 0 85
-500 0 c-411 0 -502 -2 -506 -13z"/>
<path d="M2554 4117 c-3 -8 -4 -45 -2 -83 l3 -69 503 -3 502 -2 0 85 0 85
-500 0 c-411 0 -502 -2 -506 -13z"/>
<path d="M4290 1535 l0 -1365 -80 0 -80 0 0 1155 0 1155 -250 0 -250 0 0
-1155 0 -1155 -80 0 -80 0 0 535 0 535 -250 0 -250 0 0 -535 0 -535 -80 0 -80
0 0 700 0 700 -250 0 -250 0 0 -700 0 -700 -85 0 -85 0 0 -85 0 -85 1490 0
1490 0 0 85 0 85 -165 0 -165 0 0 1365 0 1365 -250 0 -250 0 0 -1365z m330
-90 l0 -1275 -80 0 -80 0 0 1275 0 1275 80 0 80 0 0 -1275z m-660 -205 l0
-1070 -80 0 -80 0 0 1070 0 1070 80 0 80 0 0 -1070z m-1320 -455 l0 -615 -80
0 -80 0 0 615 0 615 80 0 80 0 0 -615z m660 -165 l0 -450 -80 0 -80 0 0 450 0
450 80 0 80 0 0 -450z"/>
<path d="M1810 85 l0 -85 90 0 90 0 0 85 0 85 -90 0 -90 0 0 -85z"/>
</g>
</svg>
