<?xml version="1.0" standalone="no"?>
<!DOCTYPE svg PUBLIC "-//W3C//DTD SVG 20010904//EN"
 "http://www.w3.org/TR/2001/REC-SVG-20010904/DTD/svg10.dtd">
<svg version="1.0" xmlns="http://www.w3.org/2000/svg"
 width="384.000000pt" height="384.000000pt" viewBox="0 0 384.000000 384.000000"
 preserveAspectRatio="xMidYMid meet">
<metadata>
Created by potrace 1.15, written by Peter Selinger 2001-2017
</metadata>
<g transform="translate(0.000000,384.000000) scale(0.100000,-0.100000)"
fill="#000000" stroke="none">
<path d="M1705 3826 c-139 -28 -293 -93 -418 -177 -79 -54 -232 -206 -284
-284 -303 -452 -257 -1019 116 -1408 36 -38 88 -85 115 -105 47 -35 48 -36 25
-43 -41 -12 -188 -78 -258 -115 -578 -315 -975 -936 -999 -1562 l-5 -132 155
0 155 0 6 113 c35 646 482 1215 1116 1423 168 55 270 69 496 69 180 -1 225 -4
313 -23 459 -100 828 -362 1067 -756 130 -213 225 -532 225 -753 l0 -73 156 0
157 0 -5 133 c-25 653 -454 1295 -1066 1594 -62 30 -135 63 -162 72 l-49 17
47 37 c116 88 241 242 311 383 80 161 115 312 115 499 0 228 -63 431 -197 630
-52 78 -205 230 -284 284 -128 86 -297 156 -437 180 -78 14 -335 12 -411 -3z
m385 -311 c153 -36 272 -99 381 -202 272 -257 330 -671 138 -996 -230 -389
-756 -507 -1136 -254 -315 210 -438 621 -293 978 76 186 259 368 440 435 146
54 337 70 470 39z"/>
</g>
</svg>
