<?xml version="1.0" standalone="no"?>
<!DOCTYPE svg PUBLIC "-//W3C//DTD SVG 20010904//EN"
 "http://www.w3.org/TR/2001/REC-SVG-20010904/DTD/svg10.dtd">
<svg version="1.0" xmlns="http://www.w3.org/2000/svg"
 width="512.000000pt" height="512.000000pt" viewBox="0 0 512.000000 512.000000"
 preserveAspectRatio="xMidYMid meet">
<metadata>
Created by potrace 1.15, written by Peter Selinger 2001-2017
</metadata>
<g transform="translate(0.000000,512.000000) scale(0.100000,-0.100000)"
fill="#000000" stroke="none">
<path d="M1715 5033 c-129 -18 -305 -81 -426 -153 -186 -111 -180 -105 -720
-869 -429 -609 -489 -699 -489 -731 0 -20 6 -44 12 -53 7 -10 222 -105 478
-211 l465 -194 5 -1197 c5 -1170 5 -1197 24 -1211 17 -12 183 -14 1099 -14
l1079 0 66 -61 c131 -119 297 -203 482 -241 138 -29 367 -21 493 16 192 57
336 145 473 289 193 203 284 432 284 717 0 150 -16 244 -64 372 -53 141 -118
239 -236 358 -117 118 -208 181 -345 237 -81 33 -241 73 -293 73 l-22 0 2 331
3 331 465 194 c256 106 471 201 478 211 6 9 12 33 12 53 0 32 -60 122 -489
731 -440 623 -497 700 -563 756 -132 113 -292 195 -477 245 -62 16 -117 21
-292 25 -268 6 -259 11 -259 -124 0 -120 -16 -217 -45 -280 -32 -70 -120 -157
-192 -191 -52 -24 -70 -27 -163 -27 -93 0 -111 3 -163 27 -72 34 -160 121
-192 191 -29 63 -45 160 -45 280 0 130 5 127 -227 126 -104 -1 -201 -4 -218
-6z m285 -241 c0 -150 56 -285 162 -390 108 -108 240 -162 398 -162 158 0 290
54 398 162 106 105 162 240 162 390 l0 88 38 0 c99 0 268 -22 348 -46 110 -31
258 -108 344 -177 l65 -53 3 -601 2 -602 -61 -68 c-139 -155 -273 -392 -339
-598 -61 -193 -72 -260 -77 -506 l-5 -226 -60 -44 c-87 -63 -215 -204 -272
-298 -100 -167 -146 -335 -146 -538 0 -191 45 -371 126 -510 13 -23 24 -44 24
-47 0 -3 -322 -6 -715 -6 l-714 0 -4 947 c-3 1059 2 981 -77 1228 -66 206
-200 443 -339 598 l-61 68 0 598 0 599 35 30 c184 162 415 244 708 251 l57 1
0 -88z m-963 -1779 c-8 -7 -737 303 -735 312 2 6 167 244 368 528 l365 517 3
-677 c1 -372 1 -678 -1 -680z m3417 834 c201 -285 366 -522 366 -525 0 -5
-603 -261 -726 -309 -12 -4 -14 88 -14 678 0 375 2 680 4 678 2 -2 169 -237
370 -522z m-3115 -937 c104 -201 155 -385 171 -623 5 -78 10 -499 10 -934 l0
-793 -160 0 -160 0 0 1287 0 1288 40 -55 c21 -30 66 -107 99 -170z m2581 -263
l0 -484 -82 -12 c-46 -7 -116 -23 -157 -36 -42 -14 -77 -22 -79 -20 -2 2 1 79
7 172 16 250 60 421 158 618 39 78 141 245 150 245 2 0 3 -217 3 -483z m0
-829 l0 -173 -132 -105 c-72 -58 -150 -120 -173 -137 l-41 -33 -192 27 c-144
21 -192 31 -192 41 0 25 68 145 123 217 119 156 310 277 503 318 115 25 104
42 104 -155z m305 146 c94 -23 251 -106 334 -176 41 -35 99 -94 128 -133 55
-72 123 -192 123 -217 0 -10 -48 -20 -192 -41 l-192 -27 -41 33 c-23 17 -101
79 -173 137 l-132 105 0 173 0 174 43 -7 c23 -4 69 -13 102 -21z m-75 -594
l148 -119 -61 -186 -62 -185 -175 0 -175 0 -62 185 -61 186 146 119 c81 65
148 119 150 119 2 1 70 -53 152 -119z m-813 -139 c106 -15 195 -29 197 -32 14
-16 126 -381 120 -391 -6 -10 -230 -293 -252 -318 -6 -7 -78 76 -124 144 -100
145 -148 303 -148 483 0 92 5 144 14 143 0 0 88 -13 193 -29z m1527 13 c3 -9
6 -66 6 -127 0 -180 -48 -338 -148 -483 -46 -68 -118 -151 -124 -144 -22 25
-246 308 -252 318 -6 10 106 375 121 391 3 4 329 55 379 60 7 0 15 -6 18 -15z
m-537 -690 c73 -92 130 -171 126 -176 -12 -21 -172 -88 -254 -108 -115 -27
-283 -27 -398 0 -82 20 -242 87 -254 108 -4 5 53 84 126 176 l132 166 195 0
195 0 132 -166z"/>
<path d="M2020 3340 c-19 -19 -20 -33 -20 -200 l0 -180 80 0 80 0 0 120 0 120
355 0 c195 0 355 -2 355 -4 0 -2 -29 -51 -65 -107 -251 -396 -405 -895 -405
-1314 l0 -95 85 0 85 0 0 94 c0 183 46 449 115 661 75 230 175 428 336 665 82
120 99 152 99 183 0 24 -7 44 -20 57 -19 19 -33 20 -540 20 -507 0 -521 -1
-540 -20z"/>
</g>
</svg>
