<svg id="Layer_3" enable-background="new 0 0 64 64" height="512" viewBox="0 0 64 64" width="512" xmlns="http://www.w3.org/2000/svg"><g><path d="m38.819 23.574c.214-.306.24-.705.068-1.036-.172-.33-.514-.538-.887-.538h-12c-.552 0-1 .448-1 1v4h2v-3h9.079l-.164.234c-3.87 5.529-5.915 12.018-5.915 18.766h2c0-6.335 1.92-12.428 5.554-17.619z"/><path d="m51 37.051v-8.384l11.385-4.744c.28-.117.492-.354.576-.646s.031-.605-.144-.854l-12-17-.015.011c-.033-.047-.054-.1-.094-.141-2.769-2.769-6.45-4.293-10.365-4.293h-2.343c-.552 0-1 .448-1 1v2c0 2.757-2.243 5-5 5s-5-2.243-5-5v-2c0-.552-.448-1-1-1h-2.343c-3.915 0-7.596 1.524-10.364 4.293-.041.041-.062.095-.094.141l-.015-.011-12 17c-.175.248-.228.562-.144.854s.296.529.576.646l11.384 4.744v29.333c0 .552.448 1 1 1h26.641c2.367 2.46 5.684 4 9.359 4 7.168 0 13-5.832 13-13 0-6.831-5.299-12.436-12-12.949zm9.32 9.179-5.034.719-4.286-3.429v-4.469c4.302.39 7.887 3.268 9.32 7.179zm-8.041 6.77h-4.559l-1.552-4.655 3.832-3.064 3.831 3.064zm-13.279-3c0-.623.064-1.229.164-1.824l5.082.726 1.633 4.898-3.379 4.224c-2.148-2.009-3.5-4.858-3.5-8.024zm10-12.949c-1.407.108-2.753.431-4 .952v-1.518c0-4.323 1.417-8.421 4-11.798zm0 2v4.469l-4.287 3.429-5.033-.719c1.433-3.911 5.018-6.789 9.32-7.179zm2-12.551v-17.349l9.463 13.406zm-47.463-3.943 9.463-13.406v17.349zm11.463 2.131c2.583 3.377 4 7.474 4 11.798v20.514h-4zm6 32.312v-20.515c0-5.592-2.136-10.849-6-14.869v-15.193c2.354-2.211 5.412-3.423 8.657-3.423h1.343v1c0 3.86 3.14 7 7 7s7-3.14 7-7v-1h1.343c3.245 0 6.303 1.212 8.657 3.423v15.193c-3.864 4.021-6 9.277-6 14.869v2.578c-3.602 2.314-6 6.347-6 10.937 0 2.578.763 4.977 2.063 7zm23.077 2.254 3.403-4.254h5.039l3.403 4.254c-1.711 1.1-3.741 1.746-5.922 1.746s-4.211-.646-5.923-1.746zm13.423-1.23-3.379-4.224 1.633-4.898 5.082-.726c.1.595.164 1.201.164 1.824 0 3.166-1.352 6.015-3.5 8.024z"/></g></svg>