<?xml version="1.0"?>
<svg xmlns="http://www.w3.org/2000/svg" id="Outline" viewBox="0 0 512 512" width="512" height="512"><path d="M384,272a111.311,111.311,0,0,0-49.922,11.762A40.067,40.067,0,0,0,296,256H233.631a112.769,112.769,0,0,0,43.548-48H280a40,40,0,0,0,8-79.2V128a112,112,0,0,0-224,0v.8A40,40,0,0,0,72,208h2.821a112.769,112.769,0,0,0,43.548,48H56a40.045,40.045,0,0,0-40,40V488a8,8,0,0,0,8,8H328a8,8,0,0,0,8-8v-2.821A111.995,111.995,0,1,0,384,272Zm86.289,69.955a95.278,95.278,0,0,1,6.284,16.61l-10.616-3.509ZM459.23,324.434,449.453,354l-31.526,12.61L392,340.686V315.314l22.383-22.383A96.365,96.365,0,0,1,459.23,324.434ZM399.567,400H368.433l-7.28-21.839L384,355.313l22.847,22.848Zm-87.055,48H336v19.113A96.656,96.656,0,0,1,312.512,448ZM340,432H300.887A95.406,95.406,0,0,1,288,384c0-2.668.115-5.311.329-7.925l23.166-7.661,34.088,13.635,9.494,28.481a7.854,7.854,0,0,0,.37.873Zm-66.852-32H208V384h64A112.453,112.453,0,0,0,273.148,400ZM376,340.686l-25.927,25.927L318.5,353.982l-9.755-29.512a96.365,96.365,0,0,1,44.876-31.539L376,315.314Zm-78.314,1.32,4.208,12.73-10.358,3.426A95.287,95.287,0,0,1,297.686,342.006Zm98.257-53.264L384,300.687l-11.943-11.945a96.486,96.486,0,0,1,23.886,0ZM120.581,272a55.992,55.992,0,0,0,110.838,0h16.126a71.99,71.99,0,0,1-143.09,0Zm94.614,0a40,40,0,0,1-78.39,0ZM304,168a24.035,24.035,0,0,1-20.592,23.754A111.652,111.652,0,0,0,288,160V145.376A24.039,24.039,0,0,1,304,168ZM176,32a96.108,96.108,0,0,1,96,96v5.208c-10.9-4.161-27.783-13.325-32.239-31.148a8,8,0,0,0-10.912-5.414c-52.033,22.3-105.178.222-105.7,0a8,8,0,0,0-10.912,5.414C107.812,119.767,90.917,128.969,80,133.17V128A96.108,96.108,0,0,1,176,32ZM48,168a24.039,24.039,0,0,1,16-22.624V160a111.652,111.652,0,0,0,4.592,31.754A24.035,24.035,0,0,1,48,168Zm32-8v-9.864c11.457-3.559,35-13.365,44.9-35.835,17.074,5.576,58.688,15.691,102.273.177,9.944,22.345,33.4,32.108,44.824,35.658V160a96,96,0,0,1-192,0ZM320,480H32V296a24.027,24.027,0,0,1,24-24H88.367a88,88,0,0,0,175.266,0H296a24.037,24.037,0,0,1,23.72,20.335A112.13,112.13,0,0,0,273.148,368H200a8,8,0,0,0-8,8v32a8,8,0,0,0,8,8h76.666A112.435,112.435,0,0,0,320,475.859Zm32-5.491V442.667L372,416h24l20,26.667v31.842a95.989,95.989,0,0,1-64,0Zm80-7.4V448h23.488A96.656,96.656,0,0,1,432,467.113ZM467.113,432H428l-15.447-20.6a7.854,7.854,0,0,0,.37-.873l9.494-28.481L456,368.616l23.7,7.835q.292,3.738.3,7.549A95.406,95.406,0,0,1,467.113,432Z"/><circle cx="216" cy="168" r="8"/><circle cx="136" cy="168" r="8"/><path d="M168,192h16a8,8,0,0,0,0-16h-8v-8a8,8,0,0,0-16,0v16A8,8,0,0,0,168,192Z"/><path d="M219.077,192.615a8,8,0,0,0-10.462,4.308C208.536,197.114,200.385,216,176,216c-23.956,0-32.248-18.238-32.636-19.126a8,8,0,0,0-14.749,6.2C129.107,204.258,141.068,232,176,232s46.893-27.742,47.385-28.923A8,8,0,0,0,219.077,192.615Z"/><path d="M96,352a32,32,0,1,0,32,32A32.036,32.036,0,0,0,96,352Zm0,48a16,16,0,1,1,16-16A16.019,16.019,0,0,1,96,400Z"/></svg>
