<svg width="28" height="34" viewBox="0 0 28 34" fill="none" xmlns="http://www.w3.org/2000/svg">
<path d="M21.8114 0.616211L23.6829 4.14057L27.6854 4.62694L24.7484 7.27373L25.3358 11.1893L21.8114 8.98658L18.2871 11.1893L18.8745 7.27373L15.9375 4.62694L20.0493 4.14057L21.8114 0.616211Z" fill="#323232"/>
<path d="M21.4785 13.8314L19.2018 13.2463C18.7937 14.8185 17.9288 16.2344 16.7163 17.3152C15.5039 18.396 13.9983 19.0932 12.3897 19.3187C10.7812 19.5443 9.14194 19.288 7.67901 18.5823C6.21607 17.8766 4.99512 16.7531 4.17041 15.3538C3.34569 13.9545 2.9542 12.3421 3.04541 10.7205C3.13663 9.09876 3.70644 7.54049 4.68286 6.24249C5.65929 4.9445 6.99852 3.96502 8.53136 3.42781C10.0642 2.89059 11.7219 2.81975 13.295 3.22421L13.8812 0.948649C11.588 0.352152 9.16079 0.544147 6.98989 1.49376C4.81898 2.44338 3.03048 4.09544 1.91194 6.18434C0.793394 8.27323 0.409803 10.6776 0.822835 13.0108C1.23587 15.3441 2.42153 17.4706 4.18918 19.0486V33.5102L11.2379 28.8111L18.2866 33.5102V19.0697C19.8469 17.6791 20.958 15.8556 21.4785 13.8314ZM15.9371 29.1201L11.2379 25.9869L6.53875 29.1201V20.6463C7.99671 21.3787 9.60549 21.7608 11.2371 21.762C12.8687 21.7632 14.478 21.3836 15.9371 20.6534V29.1201Z" fill="#323232"/>
</svg>
