<svg width="19" height="19" viewBox="0 0 19 19" fill="none" xmlns="http://www.w3.org/2000/svg">
<path d="M6.2621 10.35H4.66782C4.40477 10.35 4.18954 10.1608 4.18954 9.92952V8.52789C4.18954 8.29663 4.40477 8.10741 4.66782 8.10741H6.2621C6.52516 8.10741 6.74038 8.29663 6.74038 8.52789V9.92952C6.74038 10.1608 6.52516 10.35 6.2621 10.35ZM10.5666 9.92952V8.52789C10.5666 8.29663 10.3514 8.10741 10.0884 8.10741H8.49409C8.23103 8.10741 8.0158 8.29663 8.0158 8.52789V9.92952C8.0158 10.1608 8.23103 10.35 8.49409 10.35H10.0884C10.3514 10.35 10.5666 10.1608 10.5666 9.92952ZM14.3929 9.92952V8.52789C14.3929 8.29663 14.1777 8.10741 13.9146 8.10741H12.3203C12.0573 8.10741 11.8421 8.29663 11.8421 8.52789V9.92952C11.8421 10.1608 12.0573 10.35 12.3203 10.35H13.9146C14.1777 10.35 14.3929 10.1608 14.3929 9.92952ZM10.5666 13.2934V11.8918C10.5666 11.6605 10.3514 11.4713 10.0884 11.4713H8.49409C8.23103 11.4713 8.0158 11.6605 8.0158 11.8918V13.2934C8.0158 13.5247 8.23103 13.7139 8.49409 13.7139H10.0884C10.3514 13.7139 10.5666 13.5247 10.5666 13.2934ZM6.74038 13.2934V11.8918C6.74038 11.6605 6.52516 11.4713 6.2621 11.4713H4.66782C4.40477 11.4713 4.18954 11.6605 4.18954 11.8918V13.2934C4.18954 13.5247 4.40477 13.7139 4.66782 13.7139H6.2621C6.52516 13.7139 6.74038 13.5247 6.74038 13.2934ZM14.3929 13.2934V11.8918C14.3929 11.6605 14.1777 11.4713 13.9146 11.4713H12.3203C12.0573 11.4713 11.8421 11.6605 11.8421 11.8918V13.2934C11.8421 13.5247 12.0573 13.7139 12.3203 13.7139H13.9146C14.1777 13.7139 14.3929 13.5247 14.3929 13.2934ZM18.2192 4.18285V16.5172C18.2192 17.4457 17.3622 18.1991 16.306 18.1991H2.27641C1.2202 18.1991 0.363281 17.4457 0.363281 16.5172V4.18285C0.363281 3.25428 1.2202 2.5009 2.27641 2.5009H4.18954V0.678789C4.18954 0.44752 4.40477 0.258301 4.66782 0.258301H6.2621C6.52516 0.258301 6.74038 0.44752 6.74038 0.678789V2.5009H11.8421V0.678789C11.8421 0.44752 12.0573 0.258301 12.3203 0.258301H13.9146C14.1777 0.258301 14.3929 0.44752 14.3929 0.678789V2.5009H16.306C17.3622 2.5009 18.2192 3.25428 18.2192 4.18285ZM16.306 16.3069V5.8648H2.27641V16.3069C2.27641 16.4226 2.38403 16.5172 2.51555 16.5172H16.0669C16.1984 16.5172 16.306 16.4226 16.306 16.3069Z" fill="#323232"/>
</svg>
