<svg width="28" height="20" viewBox="0 0 28 20" fill="none" xmlns="http://www.w3.org/2000/svg">
<path d="M9.8 9.8C12.502 9.8 14.7 7.602 14.7 4.9C14.7 2.198 12.502 0 9.8 0C7.098 0 4.9 2.198 4.9 4.9C4.9 7.602 7.098 9.8 9.8 9.8ZM9.8 2.8C10.962 2.8 11.9 3.738 11.9 4.9C11.9 6.062 10.962 7 9.8 7C8.638 7 7.7 6.062 7.7 4.9C7.7 3.738 8.638 2.8 9.8 2.8ZM9.87 16.8H3.878C5.264 16.1 7.658 15.4 9.8 15.4C9.954 15.4 10.122 15.414 10.276 15.414C10.752 14.392 11.578 13.552 12.572 12.88C11.55 12.698 10.584 12.6 9.8 12.6C6.524 12.6 0 14.238 0 17.5V19.6H9.8V17.5C9.8 17.262 9.828 17.024 9.87 16.8ZM20.3 13.3C17.724 13.3 12.6 14.714 12.6 17.5V19.6H28V17.5C28 14.714 22.876 13.3 20.3 13.3ZM21.994 10.752C23.058 10.15 23.8 9.016 23.8 7.7C23.8 5.768 22.232 4.2 20.3 4.2C18.368 4.2 16.8 5.768 16.8 7.7C16.8 9.016 17.542 10.15 18.606 10.752C19.11 11.032 19.684 11.2 20.3 11.2C20.916 11.2 21.49 11.032 21.994 10.752Z" fill="#323232"/>
</svg>
