<svg width="33" height="23" viewBox="0 0 33 23" fill="none" xmlns="http://www.w3.org/2000/svg">
<path d="M30.9619 0.759888H6.31327C5.14481 0.759888 4.1485 1.50926 3.77849 2.55252H1.38354C0.640994 2.55252 0.0390625 3.15445 0.0390625 3.89699V19.1343C0.0390625 20.8669 1.44359 22.2715 3.17617 22.2715H30.9619C31.7045 22.2715 32.3064 21.6695 32.3064 20.927V2.10436C32.3064 1.36182 31.7045 0.759888 30.9619 0.759888ZM2.72801 19.1343V5.24146H3.62432V19.1343C3.62432 19.3815 3.42327 19.5825 3.17617 19.5825C2.92906 19.5825 2.72801 19.3815 2.72801 19.1343ZM29.6175 19.5825H6.28089C6.30184 19.4361 6.31327 19.2866 6.31327 19.1343V3.44883H29.6175V19.5825ZM9.67445 12.8601H17.2931C17.6644 12.8601 17.9654 12.5591 17.9654 12.1879V6.81001C17.9654 6.43877 17.6644 6.13778 17.2931 6.13778H9.67445C9.30321 6.13778 9.00221 6.43877 9.00221 6.81001V12.1879C9.00221 12.5591 9.30321 12.8601 9.67445 12.8601ZM11.243 8.37857H15.7246V10.6194H11.243V8.37857ZM9.00221 16.2213V14.8769C9.00221 14.5056 9.30321 14.2046 9.67445 14.2046H17.2931C17.6644 14.2046 17.9654 14.5056 17.9654 14.8769V16.2213C17.9654 16.5926 17.6644 16.8936 17.2931 16.8936H9.67445C9.30321 16.8936 9.00221 16.5926 9.00221 16.2213ZM19.758 16.2213V14.8769C19.758 14.5056 20.059 14.2046 20.4302 14.2046H26.2563C26.6275 14.2046 26.9285 14.5056 26.9285 14.8769V16.2213C26.9285 16.5926 26.6275 16.8936 26.2563 16.8936H20.4302C20.059 16.8936 19.758 16.5926 19.758 16.2213ZM19.758 8.15449V6.81001C19.758 6.43877 20.059 6.13778 20.4302 6.13778H26.2563C26.6275 6.13778 26.9285 6.43877 26.9285 6.81001V8.15449C26.9285 8.52573 26.6275 8.82672 26.2563 8.82672H20.4302C20.059 8.82672 19.758 8.52573 19.758 8.15449ZM19.758 12.1879V10.8434C19.758 10.4722 20.059 10.1712 20.4302 10.1712H26.2563C26.6275 10.1712 26.9285 10.4722 26.9285 10.8434V12.1879C26.9285 12.5591 26.6275 12.8601 26.2563 12.8601H20.4302C20.059 12.8601 19.758 12.5591 19.758 12.1879Z" fill="#323232"/>
</svg>
