<svg width="29" height="28" viewBox="0 0 29 28" fill="none" xmlns="http://www.w3.org/2000/svg">
<path d="M24.7937 1.62987C24.7937 1.39784 24.7016 1.17532 24.5375 1.01125C24.3734 0.847178 24.1509 0.755005 23.9189 0.755005H4.67174C4.43971 0.755005 4.21719 0.847178 4.05312 1.01125C3.88905 1.17532 3.79688 1.39784 3.79688 1.62987V2.50474H24.7937V1.62987Z" fill="#323232"/>
<path d="M26.5256 5.12939C26.5256 4.89736 26.4335 4.67483 26.2694 4.51076C26.1053 4.34669 25.8828 4.25452 25.6508 4.25452H2.90417C2.67214 4.25452 2.44961 4.34669 2.28554 4.51076C2.12147 4.67483 2.0293 4.89736 2.0293 5.12939V6.00425H26.5256V5.12939Z" fill="#323232"/>
<path d="M26.5259 7.75403H1.81956C1.38334 7.75403 0.964993 7.92731 0.656542 8.23577C0.348091 8.54422 0.174805 8.96257 0.174805 9.39878V25.3564C0.174805 25.7926 0.348091 26.211 0.656542 26.5194C0.964993 26.8279 1.38334 27.0012 1.81956 27.0012H26.5259C26.9621 27.0012 27.3804 26.8279 27.6889 26.5194C27.9973 26.211 28.1706 25.7926 28.1706 25.3564V9.39878C28.1706 8.96257 27.9973 8.54422 27.6889 8.23577C27.3804 7.92731 26.9621 7.75403 26.5259 7.75403ZM5.91395 10.7723C6.43304 10.7723 6.94049 10.9263 7.3721 11.2147C7.80371 11.503 8.14012 11.913 8.33877 12.3925C8.53742 12.8721 8.58939 13.3998 8.48812 13.909C8.38685 14.4181 8.13688 14.8858 7.76982 15.2528C7.40277 15.6199 6.93511 15.8698 6.42598 15.9711C5.91686 16.0724 5.38914 16.0204 4.90955 15.8218C4.42997 15.6231 4.02006 15.2867 3.73167 14.8551C3.44327 14.4235 3.28934 13.916 3.28934 13.3969C3.28934 12.7008 3.56586 12.0333 4.05807 11.5411C4.55028 11.0488 5.21786 10.7723 5.91395 10.7723ZM24.6711 23.5017H3.67428L10.2008 16.9664C10.3171 16.851 10.4744 16.7863 10.6382 16.7863C10.8021 16.7863 10.9593 16.851 11.0757 16.9664L14.2952 20.1859L18.7308 15.6279C18.8471 15.5125 19.0043 15.4477 19.1682 15.4477C19.3321 15.4477 19.4893 15.5125 19.6056 15.6279L24.6711 20.6933V23.5017Z" fill="#323232"/>
</svg>
