<svg width="17" height="16" viewBox="0 0 17 16" fill="none" xmlns="http://www.w3.org/2000/svg">
<path d="M8.74609 16C4.33502 16 0.746094 12.4111 0.746094 8C0.746094 3.58892 4.33502 0 8.74609 0C13.1572 0 16.7461 3.58892 16.7461 8C16.7461 12.4111 13.1572 16 8.74609 16ZM8.74609 1.23077C5.01317 1.23077 1.97686 4.26831 1.97686 8C1.97686 11.7317 5.01317 14.7692 8.74609 14.7692C12.479 14.7692 15.5153 11.7317 15.5153 8C15.5153 4.26831 12.479 1.23077 8.74609 1.23077Z" fill="#323232"/>
<path d="M8.36505 12.1905C7.94448 12.1905 7.60315 11.9174 7.60315 11.5809V6.70474C7.60315 6.36828 7.94448 6.09521 8.36505 6.09521C8.78563 6.09521 9.12696 6.36828 9.12696 6.70474V11.5809C9.12696 11.9174 8.78563 12.1905 8.36505 12.1905Z" fill="#323232"/>
<path d="M8.36505 4.57141C8.78584 4.57141 9.12696 4.40086 9.12696 4.19046C9.12696 3.98007 8.78584 3.80951 8.36505 3.80951C7.94427 3.80951 7.60315 3.98007 7.60315 4.19046C7.60315 4.40086 7.94427 4.57141 8.36505 4.57141Z" fill="#323232"/>
</svg>
