<svg width="27" height="27" viewBox="0 0 27 27" fill="none" xmlns="http://www.w3.org/2000/svg">
<path d="M13.8802 3.77656C14.3304 3.77656 14.7761 3.86523 15.192 4.03748C15.6079 4.20974 15.9857 4.46223 16.304 4.78052C16.6223 5.09881 16.8748 5.47668 17.0471 5.89255C17.2193 6.30842 17.308 6.75415 17.308 7.20429C17.308 7.65442 17.2193 8.10015 17.0471 8.51602C16.8748 8.93189 16.6223 9.30976 16.304 9.62805C15.9857 9.94634 15.6079 10.1988 15.192 10.3711C14.7761 10.5433 14.3304 10.632 13.8802 10.632C12.9712 10.632 12.0993 10.2709 11.4565 9.62805C10.8137 8.98523 10.4525 8.11337 10.4525 7.20429C10.4525 6.2952 10.8137 5.42334 11.4565 4.78052C12.0993 4.1377 12.9712 3.77656 13.8802 3.77656ZM13.8802 18.4668C18.728 18.4668 23.837 20.8499 23.837 21.8945V23.69H3.92354V21.8945C3.92354 20.8499 9.03247 18.4668 13.8802 18.4668ZM13.8802 0.675293C10.273 0.675293 7.35126 3.59702 7.35126 7.20429C7.35126 10.8116 10.273 13.7333 13.8802 13.7333C17.4875 13.7333 20.4092 10.8116 20.4092 7.20429C20.4092 3.59702 17.4875 0.675293 13.8802 0.675293ZM13.8802 15.3655C9.52215 15.3655 0.822266 17.5527 0.822266 21.8945V26.7913H26.9382V21.8945C26.9382 17.5527 18.2384 15.3655 13.8802 15.3655Z" fill="#323232"/>
</svg>
