<svg width="26" height="33" viewBox="0 0 26 33" fill="none" xmlns="http://www.w3.org/2000/svg">
<path d="M6.18555 18.6633H15.5018V20.9924H6.18555V18.6633Z" fill="#323232"/>
<path d="M6.18555 12.8413H20.1599V15.1704H6.18555V12.8413Z" fill="#323232"/>
<path d="M6.18555 24.4862H12.0082V26.8153H6.18555V24.4862Z" fill="#323232"/>
<path d="M23.6539 3.52472H20.1603V2.36019C20.1603 1.74249 19.9149 1.15008 19.4782 0.713295C19.0414 0.276511 18.449 0.0311279 17.8313 0.0311279H8.515C7.8973 0.0311279 7.30489 0.276511 6.86811 0.713295C6.43132 1.15008 6.18594 1.74249 6.18594 2.36019V3.52472H2.69234C2.07464 3.52472 1.48223 3.77011 1.04545 4.20689C0.608664 4.64367 0.363281 5.23608 0.363281 5.85379V30.3089C0.363281 30.9267 0.608664 31.5191 1.04545 31.9558C1.48223 32.3926 2.07464 32.638 2.69234 32.638H23.6539C24.2716 32.638 24.864 32.3926 25.3008 31.9558C25.7376 31.5191 25.983 30.9267 25.983 30.3089V5.85379C25.983 5.23608 25.7376 4.64367 25.3008 4.20689C24.864 3.77011 24.2716 3.52472 23.6539 3.52472ZM8.515 2.36019H17.8313V7.01832H8.515V2.36019ZM23.6539 30.3089H2.69234V5.85379H6.18594V9.34738H20.1603V5.85379H23.6539V30.3089Z" fill="#323232"/>
</svg>
