<svg width="30" height="19" viewBox="0 0 30 19" fill="none" xmlns="http://www.w3.org/2000/svg">
<path d="M30 3.07692C30 4.76923 28.7727 6.15384 27.2727 6.15384C27.0273 6.15384 26.7955 6.12308 26.5773 6.04615L21.7227 11.5077C21.7909 11.7538 21.8182 12.0308 21.8182 12.3077C21.8182 14 20.5909 15.3846 19.0909 15.3846C17.5909 15.3846 16.3636 14 16.3636 12.3077C16.3636 12.0308 16.3909 11.7538 16.4591 11.5077L12.9818 7.58461C12.7636 7.66154 12.5182 7.69231 12.2727 7.69231C12.0273 7.69231 11.7818 7.66154 11.5636 7.58461L5.35909 14.6C5.42727 14.8462 5.45455 15.1077 5.45455 15.3846C5.45455 17.0769 4.22727 18.4615 2.72727 18.4615C1.22727 18.4615 0 17.0769 0 15.3846C0 13.6923 1.22727 12.3077 2.72727 12.3077C2.97273 12.3077 3.20455 12.3385 3.42273 12.4154L9.64091 5.41538C9.57273 5.16923 9.54545 4.89231 9.54545 4.61538C9.54545 2.92308 10.7727 1.53846 12.2727 1.53846C13.7727 1.53846 15 2.92308 15 4.61538C15 4.89231 14.9727 5.16923 14.9045 5.41538L18.3818 9.33846C18.6 9.26154 18.8455 9.23077 19.0909 9.23077C19.3364 9.23077 19.5818 9.26154 19.8 9.33846L24.6409 3.86154C24.5727 3.61538 24.5455 3.35385 24.5455 3.07692C24.5455 1.38462 25.7727 0 27.2727 0C28.7727 0 30 1.38462 30 3.07692Z" fill="#323232"/>
</svg>
