<svg width="29" height="34" viewBox="0 0 29 34" fill="none" xmlns="http://www.w3.org/2000/svg">
<path d="M18.8399 0.364868H9.50737V3.47572H18.8399V0.364868ZM12.6182 20.5854H15.7291V11.2529H12.6182V20.5854ZM25.1083 10.3041L27.317 8.09534C26.6482 7.30207 25.9171 6.55547 25.1239 5.90219L22.9152 8.1109C20.4379 6.11735 17.3535 5.03067 14.1737 5.03115C6.44318 5.03115 0.174805 11.2995 0.174805 19.03C0.174805 26.7605 6.42762 33.0288 14.1737 33.0288C16.809 33.0303 19.3912 32.2873 21.6228 30.8854C23.8544 29.4835 25.6446 27.4798 26.7873 25.1051C27.93 22.7303 28.3786 20.0811 28.0816 17.4625C27.7845 14.8439 26.7539 12.3625 25.1083 10.3041ZM14.1737 29.918C8.15415 29.918 3.28566 25.0495 3.28566 19.03C3.28566 13.0105 8.15415 8.14201 14.1737 8.14201C20.1932 8.14201 25.0616 13.0105 25.0616 19.03C25.0616 25.0495 20.1932 29.918 14.1737 29.918Z" fill="#323232"/>
</svg>
