<svg width="23" height="23" viewBox="0 0 23 23" fill="none" xmlns="http://www.w3.org/2000/svg">
<path fill-rule="evenodd" clip-rule="evenodd" d="M11.5 1.48816C8.94729 1.48816 6.49914 2.50222 4.6941 4.30726C2.88906 6.11229 1.875 8.56045 1.875 11.1132C1.875 13.6659 2.88906 16.114 4.6941 17.9191C6.49914 19.7241 8.94729 20.7382 11.5 20.7382C14.0527 20.7382 16.5009 19.7241 18.3059 17.9191C20.1109 16.114 21.125 13.6659 21.125 11.1132C21.125 8.56045 20.1109 6.11229 18.3059 4.30726C16.5009 2.50222 14.0527 1.48816 11.5 1.48816ZM11.5 0.113158C8.58262 0.113158 5.78473 1.27208 3.72183 3.33498C1.65893 5.39788 0.500001 8.19578 0.500001 11.1132C0.500001 14.0305 1.65893 16.8284 3.72182 18.8913C5.78472 20.9542 8.58262 22.1132 11.5 22.1132C14.4174 22.1132 17.2153 20.9542 19.2782 18.8913C21.3411 16.8284 22.5 14.0305 22.5 11.1132C22.5 8.19578 21.3411 5.39788 19.2782 3.33498C17.2153 1.27208 14.4174 0.113158 11.5 0.113158Z" fill="black"/>
<path fill-rule="evenodd" clip-rule="evenodd" d="M11.987 6.50139C12.051 6.56526 12.1018 6.64112 12.1365 6.72465C12.1711 6.80817 12.189 6.89771 12.189 6.98814C12.189 7.07857 12.1711 7.16812 12.1365 7.25164C12.1018 7.33516 12.051 7.41103 11.987 7.47489L8.34736 11.1131L11.987 14.7514C12.0509 14.8153 12.1016 14.8912 12.1362 14.9747C12.1708 15.0582 12.1886 15.1477 12.1886 15.2381C12.1886 15.3285 12.1708 15.4181 12.1362 15.5016C12.1016 15.5851 12.0509 15.661 11.987 15.7249C11.9231 15.7888 11.8472 15.8395 11.7637 15.8741C11.6801 15.9087 11.5906 15.9265 11.5002 15.9265C11.4098 15.9265 11.3203 15.9087 11.2368 15.8741C11.1533 15.8395 11.0774 15.7888 11.0135 15.7249L6.88849 11.5999C6.82446 11.536 6.77367 11.4602 6.73901 11.3766C6.70435 11.2931 6.68651 11.2036 6.68651 11.1131C6.68651 11.0227 6.70435 10.9332 6.73901 10.8496C6.77367 10.7661 6.82446 10.6903 6.88849 10.6264L11.0135 6.50139C11.0773 6.43737 11.1532 6.38657 11.2367 6.35191C11.3203 6.31726 11.4098 6.29942 11.5002 6.29942C11.5907 6.29942 11.6802 6.31726 11.7637 6.35191C11.8473 6.38657 11.9231 6.43737 11.987 6.50139Z" fill="black"/>
<path fill-rule="evenodd" clip-rule="evenodd" d="M16.3125 11.1132C16.3125 11.2955 16.2401 11.4704 16.1111 11.5993C15.9822 11.7282 15.8073 11.8007 15.625 11.8007L8.75 11.8007C8.56766 11.8007 8.39279 11.7282 8.26386 11.5993C8.13493 11.4704 8.0625 11.2955 8.0625 11.1132C8.0625 10.9308 8.13493 10.756 8.26386 10.627C8.39279 10.4981 8.56766 10.4257 8.75 10.4257L15.625 10.4257C15.8073 10.4257 15.9822 10.4981 16.1111 10.627C16.2401 10.756 16.3125 10.9308 16.3125 11.1132Z" fill="black"/>
</svg>
