<svg width="23" height="23" viewBox="0 0 23 23" fill="none" xmlns="http://www.w3.org/2000/svg">
<path fill-rule="evenodd" clip-rule="evenodd" d="M11.4229 20.7382C13.9756 20.7382 16.4237 19.7241 18.2288 17.9191C20.0338 16.114 21.0479 13.6659 21.0479 11.1132C21.0479 8.56045 20.0338 6.11229 18.2288 4.30726C16.4237 2.50222 13.9756 1.48816 11.4229 1.48816C8.87014 1.48816 6.42199 2.50222 4.61695 4.30726C2.81191 6.11229 1.79785 8.56045 1.79785 11.1132C1.79785 13.6659 2.81191 16.114 4.61695 17.9191C6.42199 19.7241 8.87014 20.7382 11.4229 20.7382ZM11.4229 22.1132C14.3402 22.1132 17.1381 20.9542 19.201 18.8913C21.2639 16.8284 22.4229 14.0305 22.4229 11.1132C22.4229 8.19578 21.2639 5.39788 19.201 3.33498C17.1381 1.27208 14.3402 0.113159 11.4229 0.113159C8.50547 0.113159 5.70758 1.27208 3.64468 3.33498C1.58178 5.39788 0.422852 8.19578 0.422852 11.1132C0.422852 14.0305 1.58178 16.8284 3.64468 18.8913C5.70758 20.9542 8.50547 22.1132 11.4229 22.1132Z" fill="#323232"/>
<path fill-rule="evenodd" clip-rule="evenodd" d="M10.9359 15.7249C10.8718 15.6611 10.821 15.5852 10.7864 15.5017C10.7517 15.4181 10.7339 15.3286 10.7339 15.2382C10.7339 15.1477 10.7517 15.0582 10.7864 14.9747C10.821 14.8912 10.8718 14.8153 10.9359 14.7514L14.5755 11.1132L10.9359 7.47492C10.8719 7.411 10.8212 7.33512 10.7866 7.2516C10.7521 7.16808 10.7342 7.07857 10.7342 6.98817C10.7342 6.89778 10.7521 6.80826 10.7866 6.72475C10.8212 6.64123 10.8719 6.56534 10.9359 6.50142C10.9998 6.4375 11.0757 6.3868 11.1592 6.3522C11.2427 6.31761 11.3322 6.2998 11.4226 6.2998C11.513 6.2998 11.6025 6.31761 11.686 6.3522C11.7696 6.3868 11.8454 6.4375 11.9094 6.50142L16.0344 10.6264C16.0984 10.6903 16.1492 10.7662 16.1838 10.8497C16.2185 10.9332 16.2363 11.0227 16.2363 11.1132C16.2363 11.2036 16.2185 11.2931 16.1838 11.3767C16.1492 11.4602 16.0984 11.5361 16.0344 11.5999L11.9094 15.7249C11.8455 15.7889 11.7696 15.8397 11.6861 15.8744C11.6026 15.9091 11.513 15.9269 11.4226 15.9269C11.3322 15.9269 11.2426 15.9091 11.1591 15.8744C11.0756 15.8397 10.9997 15.7889 10.9359 15.7249Z" fill="#323232"/>
<path fill-rule="evenodd" clip-rule="evenodd" d="M6.61035 11.1132C6.61035 10.9308 6.68278 10.756 6.81172 10.627C6.94065 10.4981 7.11552 10.4257 7.29785 10.4257H14.1729C14.3552 10.4257 14.5301 10.4981 14.659 10.627C14.7879 10.756 14.8604 10.9308 14.8604 11.1132C14.8604 11.2955 14.7879 11.4704 14.659 11.5993C14.5301 11.7282 14.3552 11.8007 14.1729 11.8007H7.29785C7.11552 11.8007 6.94065 11.7282 6.81172 11.5993C6.68278 11.4704 6.61035 11.2955 6.61035 11.1132Z" fill="#323232"/>
</svg>
