<svg width="42" height="42" viewBox="0 0 42 42" fill="none" xmlns="http://www.w3.org/2000/svg">
<path d="M20.8969 10.5441C15.0802 10.5441 10.3885 15.2362 10.3885 21.0532C10.3885 26.8703 15.0802 31.5624 20.8969 31.5624C26.7136 31.5624 31.4053 26.8703 31.4053 21.0532C31.4053 15.2362 26.7136 10.5441 20.8969 10.5441ZM20.8969 27.8856C17.138 27.8856 14.0651 24.8215 14.0651 21.0532C14.0651 17.285 17.1289 14.2209 20.8969 14.2209C24.6649 14.2209 27.7287 17.285 27.7287 21.0532C27.7287 24.8215 24.6558 27.8856 20.8969 27.8856ZM34.2862 10.1142C34.2862 11.477 33.1887 12.5654 31.8351 12.5654C30.4724 12.5654 29.3841 11.4679 29.3841 10.1142C29.3841 8.76057 30.4816 7.66301 31.8351 7.66301C33.1887 7.66301 34.2862 8.76057 34.2862 10.1142ZM41.2461 12.602C41.0906 9.3185 40.3406 6.40996 37.9353 4.01362C35.5391 1.61728 32.6308 0.867283 29.3475 0.702649C25.9636 0.510575 15.821 0.510575 12.4371 0.702649C9.16296 0.858136 6.25463 1.60814 3.84932 4.00448C1.444 6.40082 0.703198 9.30935 0.538576 12.5929C0.346516 15.977 0.346516 26.1203 0.538576 29.5045C0.694053 32.788 1.444 35.6965 3.84932 38.0929C6.25463 40.4892 9.15382 41.2392 12.4371 41.4038C15.821 41.5959 25.9636 41.5959 29.3475 41.4038C32.6308 41.2484 35.5391 40.4984 37.9353 38.0929C40.3315 35.6965 41.0814 32.788 41.2461 29.5045C41.4381 26.1203 41.4381 15.9862 41.2461 12.602ZM36.8744 33.1356C36.1611 34.9282 34.7801 36.3093 32.9784 37.0319C30.2804 38.102 23.8784 37.8551 20.8969 37.8551C17.9154 37.8551 11.5043 38.0929 8.81543 37.0319C7.02287 36.3185 5.64187 34.9374 4.91936 33.1356C3.84932 30.4374 4.09625 24.035 4.09625 21.0532C4.09625 18.0715 3.85846 11.66 4.91936 8.97094C5.63273 7.17825 7.01373 5.79716 8.81543 5.0746C11.5134 4.00448 17.9154 4.25143 20.8969 4.25143C23.8784 4.25143 30.2895 4.01362 32.9784 5.0746C34.7709 5.78801 36.1519 7.16911 36.8744 8.97094C37.9445 11.6691 37.6975 18.0715 37.6975 21.0532C37.6975 24.035 37.9445 30.4465 36.8744 33.1356Z" fill="#323232"/>
</svg>
