<svg width="32" height="32" viewBox="0 0 32 32" fill="none" xmlns="http://www.w3.org/2000/svg">
<path d="M15.8221 7.70603C11.3333 7.70603 7.71255 11.327 7.71255 15.8162C7.71255 20.3053 11.3333 23.9263 15.8221 23.9263C20.3109 23.9263 23.9317 20.3053 23.9317 15.8162C23.9317 11.327 20.3109 7.70603 15.8221 7.70603ZM15.8221 21.0888C12.9213 21.0888 10.5498 18.7242 10.5498 15.8162C10.5498 12.9081 12.9142 10.5435 15.8221 10.5435C18.73 10.5435 21.0944 12.9081 21.0944 15.8162C21.0944 18.7242 18.7229 21.0888 15.8221 21.0888ZM26.1549 7.37429C26.1549 8.42599 25.308 9.26595 24.2634 9.26595C23.2118 9.26595 22.3719 8.41893 22.3719 7.37429C22.3719 6.32964 23.2188 5.48263 24.2634 5.48263C25.308 5.48263 26.1549 6.32964 26.1549 7.37429ZM31.526 9.29418C31.406 6.7602 30.8273 4.51563 28.971 2.66632C27.1218 0.817012 24.8774 0.238222 22.3436 0.11117C19.7322 -0.0370567 11.905 -0.0370567 9.29353 0.11117C6.76679 0.231163 4.52237 0.809954 2.66613 2.65926C0.809897 4.50857 0.238205 6.75315 0.111162 9.28712C-0.0370541 11.8987 -0.0370541 19.7265 0.111162 22.3381C0.231147 24.8721 0.809897 27.1167 2.66613 28.966C4.52237 30.8153 6.75973 31.3941 9.29353 31.5212C11.905 31.6694 19.7322 31.6694 22.3436 31.5212C24.8774 31.4012 27.1218 30.8224 28.971 28.966C30.8202 27.1167 31.399 24.8721 31.526 22.3381C31.6742 19.7265 31.6742 11.9058 31.526 9.29418ZM28.1523 25.1403C27.6018 26.5238 26.536 27.5896 25.1456 28.1472C23.0635 28.9731 18.123 28.7825 15.8221 28.7825C13.5212 28.7825 8.57362 28.966 6.49859 28.1472C5.11523 27.5967 4.04949 26.5308 3.49191 25.1403C2.66613 23.0581 2.8567 18.1172 2.8567 15.8162C2.8567 13.5151 2.67319 8.56716 3.49191 6.49198C4.04243 5.10853 5.10817 4.04271 6.49859 3.4851C8.58067 2.65926 13.5212 2.84984 15.8221 2.84984C18.123 2.84984 23.0706 2.66632 25.1456 3.4851C26.529 4.03565 27.5947 5.10148 28.1523 6.49198C28.9781 8.57422 28.7875 13.5151 28.7875 15.8162C28.7875 18.1172 28.9781 23.0652 28.1523 25.1403Z" fill="#626262"/>
</svg>
