<svg width="42" height="42" viewBox="0 0 42 42" fill="none" xmlns="http://www.w3.org/2000/svg">
<path d="M9.98743 41.5405H1.49294V14.1839H9.98743V41.5405ZM5.73561 10.4522C3.01935 10.4522 0.816162 8.20218 0.816162 5.48573C0.816162 4.18091 1.33446 2.92954 2.25704 2.0069C3.17961 1.08425 4.43089 0.565918 5.73561 0.565918C7.04033 0.565918 8.29161 1.08425 9.21419 2.0069C10.1368 2.92954 10.6551 4.18091 10.6551 5.48573C10.6551 8.20218 8.45096 10.4522 5.73561 10.4522ZM41.7796 41.5405H33.3034V28.2235C33.3034 25.0497 33.2394 20.9796 28.8869 20.9796C24.4705 20.9796 23.7937 24.4278 23.7937 27.9948V41.5405H15.3084V14.1839H23.4553V17.9156H23.5742C24.7083 15.7662 27.4785 13.4979 31.6114 13.4979C40.2084 13.4979 41.7887 19.1595 41.7887 26.5131V41.5405H41.7796Z" fill="#323232"/>
</svg>
