<svg width="32" height="32" viewBox="0 0 32 32" fill="none" xmlns="http://www.w3.org/2000/svg">
<path d="M7.07766 31.621H0.522285V10.5093H7.07766V31.621ZM3.79645 7.62944C1.70025 7.62944 0 5.89307 0 3.79672C1.50037e-08 2.78977 0.399981 1.82406 1.11195 1.11203C1.82392 0.40001 2.78957 0 3.79645 0C4.80333 0 5.76897 0.40001 6.48094 1.11203C7.19291 1.82406 7.59289 2.78977 7.59289 3.79672C7.59289 5.89307 5.89194 7.62944 3.79645 7.62944ZM31.6123 31.621H25.0711V21.3439C25.0711 18.8947 25.0217 15.7537 21.6628 15.7537C18.2546 15.7537 17.7323 18.4147 17.7323 21.1675V31.621H11.184V10.5093H17.4711V13.3891H17.5629C18.4381 11.7304 20.5759 9.97989 23.7654 9.97989C30.3998 9.97989 31.6194 14.3491 31.6194 20.024V31.621H31.6123Z" fill="#626262"/>
</svg>
