<svg width="39" height="30" viewBox="0 0 39 30" fill="none" xmlns="http://www.w3.org/2000/svg">
<path d="M39 3.53065C37.5497 4.12941 36.0043 4.52629 34.3931 4.719C36.0506 3.78759 37.3157 2.32394 37.9104 0.559765C36.3651 1.42694 34.6588 2.03947 32.8404 2.38129C31.3731 0.910765 29.2817 0 27.0002 0C22.5737 0 19.0101 3.38153 19.0101 7.527C19.0101 8.12347 19.0637 8.697 19.1953 9.243C12.5483 8.93788 6.66656 5.93947 2.71537 1.37188C2.02556 2.49829 1.62094 3.78759 1.62094 5.17553C1.62094 7.78165 3.04688 10.0918 5.17237 11.4293C3.88781 11.4064 2.62762 11.0554 1.56 10.5025C1.56 10.5254 1.56 10.5552 1.56 10.5851C1.56 14.2419 4.33144 17.2793 7.96575 17.979C7.31494 18.1465 6.60563 18.2268 5.8695 18.2268C5.35763 18.2268 4.84087 18.1992 4.35581 18.0983C5.39175 21.0784 8.33138 23.2692 11.8268 23.3404C9.1065 25.3431 5.65256 26.5498 1.91344 26.5498C1.25775 26.5498 0.628875 26.5223 0 26.4466C3.54169 28.5962 7.73906 29.8235 12.2655 29.8235C26.9783 29.8235 35.022 18.3529 35.022 8.41023C35.022 8.07759 35.0098 7.75641 34.9927 7.43753C36.5796 6.37765 37.9129 5.05394 39 3.53065Z" fill="#626262"/>
</svg>