<svg width="40" height="29" viewBox="0 0 40 29" fill="none" xmlns="http://www.w3.org/2000/svg">
<path d="M39.115 4.04831L39.165 4.37497C38.6817 2.65999 37.3767 1.33667 35.7184 0.855012L35.6834 0.846679C32.5651 2.28482e-05 20.0169 2.30331e-05 20.0169 2.30331e-05C20.0169 2.30331e-05 7.5004 -0.0166436 4.35044 0.846679C2.66046 1.33667 1.35381 2.65999 0.878813 4.33997L0.87048 4.37497C-0.294506 10.4599 -0.302839 17.7715 0.922146 24.2864L0.87048 23.9564C1.35381 25.6714 2.65879 26.9947 4.3171 27.4763L4.3521 27.4847C7.46707 28.333 20.0186 28.333 20.0186 28.333C20.0186 28.333 32.5334 28.333 35.6851 27.4847C37.3767 26.9947 38.6833 25.6714 39.1583 23.9914L39.1667 23.9564C39.6967 21.1264 40 17.8698 40 14.5432C40 14.4215 40 14.2982 39.9983 14.1748C40 14.0615 40 13.9265 40 13.7915C40 10.4632 39.6967 7.2066 39.115 4.04831ZM16.0136 20.2514V8.09659L26.4568 14.1832L16.0136 20.2514Z" fill="#626262"/>
</svg>
